<?xml version="1.0" standalone="no"?>
<!DOCTYPE svg PUBLIC "-//W3C//DTD SVG 20010904//EN"
 "http://www.w3.org/TR/2001/REC-SVG-20010904/DTD/svg10.dtd">
<svg version="1.0" xmlns="http://www.w3.org/2000/svg"
 width="1600.000000pt" height="800.000000pt" viewBox="0 0 1600.000000 800.000000"
 preserveAspectRatio="xMidYMid meet">

<g transform="translate(0.000000,800.000000) scale(0.100000,-0.100000)"
fill="#000000" stroke="none">
<path d="M0 4000 l0 -4000 8000 0 8000 0 0 4000 0 4000 -8000 0 -8000 0 0
-4000z m13531 3894 c-6 -32 -11 -73 -11 -91 0 -18 -5 -33 -10 -33 -7 0 -9 27
-6 78 3 42 5 85 6 95 0 10 5 15 10 12 6 -3 10 0 11 7 0 9 2 10 5 1 3 -6 0 -38
-5 -69z m-756 -301 c-12 -492 -12 -503 4 -541 12 -28 16 -31 23 -17 7 12 13
13 23 5 16 -13 23 2 32 78 3 31 8 51 11 44 3 -10 7 -10 18 -1 21 17 38 -3 30
-35 -7 -30 -32 -35 -39 -8 -3 9 -5 -8 -6 -40 -1 -36 3 -58 11 -60 8 -3 11 -26
10 -69 -2 -54 1 -70 18 -89 11 -13 23 -20 26 -17 4 3 13 0 21 -8 12 -13 13
-24 2 -71 -10 -46 -10 -57 1 -64 7 -4 10 -15 7 -24 -5 -13 -3 -15 10 -8 9 5
23 7 32 5 23 -6 42 -52 31 -73 -5 -9 -6 -27 -3 -40 5 -20 3 -22 -15 -18 -26 7
-32 -14 -17 -57 18 -51 46 -87 64 -80 8 3 12 3 8 -1 -4 -4 -2 -13 3 -20 8 -8
6 -17 -7 -30 -22 -22 -30 -76 -10 -68 10 4 17 -11 27 -55 12 -59 12 -61 -20
-125 -27 -53 -31 -68 -21 -80 7 -8 10 -20 6 -26 -3 -5 2 -10 14 -10 42 0 34
-32 -14 -51 -17 -6 -24 -13 -17 -16 6 -3 10 -9 7 -13 -6 -10 -37 -1 -46 13 -7
10 -372 13 -389 2 -6 -4 -16 -2 -23 3 -7 6 -28 12 -47 14 -44 4 -42 20 4 32
43 11 44 17 11 52 -23 25 -26 52 -3 38 6 -4 8 1 3 15 -4 12 -2 27 3 34 6 7 7
42 3 87 -5 46 -4 78 2 81 5 4 7 16 4 28 -3 13 0 21 8 21 14 0 36 75 28 96 -3
9 -13 12 -24 9 -13 -4 -19 -1 -19 9 0 9 9 16 20 16 11 0 20 5 20 11 0 6 7 9
15 5 13 -4 16 4 16 47 0 28 1 86 2 127 l2 75 -27 0 c-26 -1 -28 2 -28 41 0 29
9 55 28 84 l27 42 5 -45 c5 -42 20 -78 20 -48 0 7 13 25 28 40 37 33 40 67 42
391 0 135 3 281 5 325 2 44 7 148 11 230 6 156 8 165 26 165 8 0 9 -100 3
-357z m-85 298 c0 -15 -11 -61 -26 -102 -26 -76 -27 -95 -25 -323 0 -84 3 -98
16 -93 8 4 15 2 15 -2 0 -5 -4 -11 -9 -13 -11 -3 -15 -34 -13 -91 1 -26 6 -36
13 -31 12 7 10 -12 -6 -77 -5 -20 -1 -32 16 -48 13 -11 18 -21 12 -21 -5 0
-15 -12 -22 -27 -12 -26 -14 -26 -25 -10 -17 23 -25 22 -19 -3 5 -20 -11 -28
-21 -11 -3 5 -68 9 -145 8 l-138 -1 5 -45 c2 -25 11 -61 18 -80 8 -19 17 -59
20 -90 3 -31 7 -68 9 -83 l4 -26 -61 4 c-41 2 -83 14 -126 34 -73 34 -102 33
-97 -6 3 -32 -14 -26 -40 14 -11 17 -23 31 -27 32 -12 0 4 -33 38 -78 31 -41
32 -45 19 -76 -16 -37 -10 -52 25 -59 14 -3 -21 -5 -77 -4 -88 0 -99 2 -87 15
11 11 14 39 12 125 -3 110 -3 111 -29 118 -38 10 -78 0 -90 -23 -23 -43 -31
-148 -34 -446 -2 -172 -6 -320 -9 -330 -3 -9 -8 -71 -12 -137 -3 -66 -8 -123
-10 -126 -4 -7 -5 -410 -1 -479 3 -38 7 -46 27 -52 52 -14 382 -46 338 -32
-26 8 -22 24 13 62 l30 32 153 0 c144 0 154 -1 159 -19 3 -11 2 -22 -1 -25 -9
-10 -62 -6 -62 4 0 6 -39 10 -97 9 -65 -1 -89 -4 -73 -9 18 -6 7 -8 -42 -9
-37 -1 -70 -5 -73 -11 -4 -6 38 -11 117 -12 68 -1 137 -3 153 -4 17 -1 82 -2
145 -3 68 -1 109 -5 102 -10 -17 -10 6 -17 93 -26 33 -4 62 -9 64 -11 2 -2
-52 -4 -120 -4 -68 0 -131 -5 -139 -10 -10 -7 23 -10 105 -11 66 -1 125 -2
130 -4 6 -1 34 -3 63 -3 50 -2 52 -3 42 -22 -6 -11 -16 -17 -22 -14 -7 4 -8 2
-4 -5 14 -23 -12 -37 -61 -34 -46 3 -47 2 -23 -12 14 -8 33 -14 43 -15 9 0 17
-7 17 -15 0 -19 36 -20 43 -1 4 10 25 14 82 13 42 0 78 -4 81 -9 3 -5 13 -3
22 4 12 10 16 10 19 0 3 -6 10 -9 16 -5 7 4 52 7 101 8 62 0 91 4 93 13 4 9
-28 12 -134 14 -76 0 -142 2 -148 3 -5 2 -32 4 -60 5 l-50 2 43 10 c23 5 42
13 42 19 0 5 7 9 16 9 8 0 12 -4 9 -10 -3 -5 0 -10 9 -10 8 0 21 -3 30 -6 9
-3 16 -1 16 5 0 24 -53 34 -97 18 -47 -17 -57 -14 -40 14 9 14 24 19 59 19 27
0 48 -4 48 -10 0 -5 9 -10 19 -10 11 0 23 -4 26 -10 12 -19 33 -11 28 10 -5
19 0 20 65 20 39 0 73 -4 76 -9 6 -9 92 -6 211 9 129 16 136 17 223 39 46 12
93 21 105 21 16 0 29 13 46 45 13 25 22 47 20 50 -2 2 -18 5 -34 8 -20 2 -31
10 -33 23 -2 16 4 19 43 19 l46 0 26 80 c14 44 39 118 55 165 40 115 39 110
28 110 -6 0 -10 7 -10 15 0 8 7 15 15 15 21 0 20 56 -1 64 -9 4 -14 9 -10 13
9 10 -34 52 -48 47 -13 -5 -121 112 -173 189 -22 32 -33 42 -29 27 19 -63 27
-107 26 -135 -4 -93 -5 -95 -64 -95 -32 0 -37 -2 -27 -14 16 -19 16 -127 1
-136 -7 -4 -9 -16 -6 -27 3 -11 -1 -27 -10 -39 -8 -10 -12 -12 -8 -4 7 13 5
13 -9 1 -18 -14 -24 -36 -7 -26 6 3 10 -1 10 -11 0 -13 -3 -14 -15 -4 -20 17
-19 39 6 104 13 37 19 73 17 108 -3 46 -6 53 -25 56 -13 2 -23 6 -23 8 0 26
26 165 42 224 11 41 23 84 26 95 2 11 15 34 27 50 12 17 25 46 29 65 19 96 19
96 -12 132 -38 43 -61 106 -57 158 4 53 11 63 36 50 10 -6 19 -16 19 -22 0 -6
-6 -5 -17 3 -14 12 -14 9 2 -16 24 -38 75 -91 75 -77 0 6 -5 14 -11 18 -7 4
-7 10 -1 16 6 6 8 17 5 24 -4 10 3 14 22 14 15 0 24 4 20 10 -11 18 29 -2 57
-28 15 -14 30 -24 32 -21 6 7 -55 129 -65 129 -5 0 -9 7 -9 16 0 8 -3 13 -7
11 -5 -3 -9 13 -11 35 -1 22 -7 49 -12 59 -23 41 -4 99 20 62 10 -16 11 -15 6
6 -6 27 15 84 35 96 9 6 11 1 6 -21 -5 -29 -5 -29 34 -27 21 1 44 5 49 8 14 9
2 25 -19 25 -9 0 -28 10 -40 21 -21 20 -23 28 -17 83 4 34 12 77 18 96 10 30
12 32 19 15 4 -11 8 -43 8 -71 1 -35 6 -54 15 -57 15 -6 25 28 27 92 1 33 2
32 10 -14 6 -27 7 -74 4 -102 -4 -43 -2 -53 10 -53 17 0 35 -30 35 -59 0 -10
5 -21 12 -23 10 -4 10 -16 0 -58 -15 -66 -2 -85 66 -93 65 -8 74 -10 98 -27
28 -20 45 -54 53 -109 l7 -46 18 33 c9 18 15 39 13 45 -6 15 33 86 47 89 6 0
16 2 21 3 6 2 15 3 21 4 7 0 14 11 18 24 3 14 17 26 40 33 23 7 33 7 29 1 -4
-6 0 -8 9 -4 9 3 21 0 27 -6 14 -14 14 -28 0 -25 -6 2 -13 -2 -16 -9 -6 -16
24 -10 47 10 14 12 20 30 20 60 0 38 4 46 26 56 15 6 24 14 21 18 -4 3 -13 0
-22 -7 -9 -7 -18 -11 -20 -8 -6 6 13 209 20 216 3 3 5 -1 5 -9 0 -8 13 -30 29
-49 23 -28 27 -39 19 -54 -8 -15 -7 -18 4 -14 11 5 13 -1 10 -22 -3 -21 1 -31
17 -40 12 -6 19 -15 16 -19 -2 -5 5 -11 16 -14 13 -4 18 -10 13 -18 -4 -8 -3
-10 5 -5 17 11 39 -10 46 -45 4 -16 11 -29 16 -29 6 0 9 6 7 13 -1 6 3 22 10
35 7 12 10 27 6 34 -5 7 1 9 20 6 19 -4 26 -1 26 11 0 14 2 14 10 1 14 -21 12
-43 -2 -34 -8 5 -9 2 -5 -10 4 -10 7 -24 7 -31 0 -20 34 -7 66 26 15 16 33 29
40 29 18 0 75 50 69 60 -3 5 -1 11 5 15 5 3 10 1 10 -5 0 -6 5 -8 10 -5 6 4 8
11 5 16 -4 5 -1 9 6 9 7 0 35 17 63 38 80 60 99 72 121 72 15 0 -3 -22 -68
-87 -55 -54 -83 -89 -76 -93 8 -6 8 -9 -1 -15 -7 -4 -15 -2 -19 4 -5 8 -12 6
-24 -6 -8 -10 -16 -21 -16 -26 0 -4 -10 -17 -21 -30 -16 -16 -20 -18 -15 -4 4
9 3 17 -3 17 -14 0 -29 -21 -37 -53 -4 -15 -12 -30 -18 -34 -6 -4 -7 -1 -2 8
5 8 -1 5 -13 -5 -19 -17 -22 -17 -22 -3 0 10 -4 17 -10 17 -5 0 -10 -4 -10 -9
0 -11 -71 -57 -82 -53 -8 2 -12 -27 -10 -60 1 -9 -6 -22 -15 -29 -14 -12 -15
-11 -8 11 l7 25 -25 -25 c-15 -14 -28 -37 -31 -51 -2 -14 -34 -63 -71 -109
-38 -47 -64 -88 -61 -96 3 -8 -3 -29 -14 -47 -11 -17 -20 -37 -20 -44 0 -11
-78 -144 -110 -189 -21 -29 -93 -72 -159 -96 -31 -11 -75 -27 -98 -35 -24 -8
-45 -24 -48 -34 -4 -10 -13 -19 -20 -19 -8 0 -12 -6 -9 -14 3 -8 -4 -32 -15
-54 -11 -21 -27 -70 -36 -108 -9 -38 -29 -95 -45 -126 -17 -31 -30 -65 -30
-75 0 -10 -8 -41 -19 -70 -11 -29 -15 -56 -10 -64 4 -7 6 -16 3 -20 -2 -4 2
-31 9 -61 9 -33 12 -72 7 -103 -7 -55 -12 -49 -32 40 -13 62 -25 72 -43 39 -5
-11 -20 -33 -32 -50 -12 -17 -19 -34 -16 -38 4 -3 -1 -6 -11 -6 -9 0 -42 -9
-74 -19 -32 -11 -82 -23 -112 -27 -30 -4 -66 -12 -80 -19 -29 -15 -144 -45
-170 -45 -28 0 -50 -28 -50 -62 0 -23 -4 -29 -15 -24 -16 6 -45 -49 -45 -86 0
-17 -4 -19 -27 -13 -16 4 -77 9 -138 11 -233 9 -363 22 -390 40 l-27 17 27 11
27 11 -49 23 c-27 12 -79 42 -115 66 -36 24 -74 47 -85 50 -17 5 -20 2 -18
-19 3 -26 -9 -35 -18 -12 -3 6 -6 3 -6 -9 -1 -11 5 -26 12 -34 10 -12 9 -12
-5 -1 -10 7 -18 20 -18 28 0 8 -4 12 -9 8 -5 -3 -13 0 -17 7 -5 8 -10 6 -15
-8 -7 -17 -8 -17 -8 4 -1 13 -5 20 -11 17 -5 -3 -10 -2 -10 3 0 24 -114 65
-215 77 -27 3 -115 14 -195 24 -80 11 -163 19 -185 20 -22 0 -71 6 -110 13
-38 6 -74 11 -78 10 -11 -3 -157 58 -182 76 -19 13 -19 13 5 6 14 -4 59 -18
100 -30 l75 -22 3 30 c3 24 6 27 18 17 11 -9 14 -7 14 14 0 23 -5 27 -47 33
l-48 8 44 8 c25 4 48 13 53 20 4 7 8 47 9 88 2 110 4 138 12 146 15 15 20 -8
18 -83 -1 -51 1 -75 8 -68 5 6 11 24 14 40 2 17 5 6 6 -27 0 -31 5 -59 10 -62
5 -3 12 63 16 150 6 128 5 158 -6 165 -11 6 -15 1 -17 -21 -2 -17 -8 -28 -13
-25 -5 4 -9 0 -9 -7 0 -11 -2 -11 -9 0 -4 7 -9 75 -10 150 -1 75 -4 157 -7
183 -3 25 -1 142 5 260 6 117 13 281 16 362 5 153 9 170 57 233 21 27 28 30
78 30 l55 -1 23 45 c22 45 24 102 3 123 -11 11 -50 -44 -62 -88 -9 -32 -11
-33 -34 -23 -29 13 -30 29 -11 109 15 62 32 99 46 99 6 0 10 7 10 15 0 9 11
20 24 26 15 7 23 20 24 37 0 15 8 60 16 100 19 86 19 95 6 87 -12 -8 -13 19
-1 59 5 17 18 63 30 101 11 39 23 81 27 95 9 33 21 40 71 40 34 0 41 -3 37
-15 -4 -8 -1 -15 5 -15 8 0 11 -16 9 -47 -3 -44 -5 -48 -33 -54 l-30 -6 30 -4
c23 -3 30 -9 30 -27 0 -13 6 -26 13 -31 8 -5 10 -19 6 -39 -6 -30 -10 -32 -48
-33 -22 -1 -48 -2 -56 -3 -19 -1 -60 -63 -60 -90 0 -12 -9 -56 -19 -99 -15
-62 -16 -80 -6 -83 7 -3 16 -20 20 -37 7 -31 7 -31 14 -7 6 22 12 25 65 25 35
1 61 6 65 14 6 9 10 10 15 2 4 -6 12 -8 18 -5 6 4 5 -2 -2 -15 -6 -12 -10 -29
-8 -38 2 -11 16 -4 51 27 33 29 45 46 38 53 -7 7 -17 3 -31 -14 -21 -23 -21
-23 -17 -3 5 23 -26 225 -37 243 -10 16 29 14 43 -3 6 -7 18 -43 27 -80 15
-57 20 -66 40 -66 12 0 29 -3 38 -6 13 -5 14 -1 6 25 -4 16 -6 39 -3 51 6 22
0 25 -27 10 -28 -15 -35 5 -10 30 11 11 20 25 20 30 0 7 8 6 22 -1 22 -12 22
-12 3 -20 -18 -8 -18 -9 -1 -6 30 3 37 40 16 80 -18 33 -18 38 -4 52 20 20 40
19 49 -2 6 -17 7 -17 20 0 8 11 28 19 47 20 29 2 33 5 31 28 -1 25 1 27 38 26
21 0 39 -6 39 -11 0 -6 5 -4 10 4 5 8 10 36 10 63 0 34 7 58 26 87 15 22 30
40 34 40 7 0 34 57 60 124 12 33 40 24 40 -13z m175 2 c3 -21 12 -56 20 -78
20 -62 28 -125 16 -125 -5 0 -13 17 -16 38 -3 20 -12 51 -20 69 -19 43 -31
133 -17 133 5 0 13 -17 17 -37z m-761 -57 c41 -17 41 -18 61 -173 8 -68 21
-150 29 -183 8 -35 10 -62 5 -66 -5 -3 -9 1 -9 9 0 7 -11 20 -25 27 -21 11
-25 21 -24 49 1 20 -4 94 -10 165 -6 70 -9 132 -6 137 8 12 -31 30 -65 31 -16
1 -27 5 -24 10 8 12 30 10 68 -6z m-5490 -45 c10 -15 -115 -102 -238 -166 -64
-33 -116 -64 -116 -70 -1 -23 -142 -91 -162 -79 -5 3 -19 -1 -31 -8 -39 -25
-220 -97 -305 -121 -91 -26 -124 -19 -40 9 29 9 71 26 93 37 22 11 54 19 71
19 17 -1 40 6 50 14 10 9 13 13 7 9 -7 -3 -13 -2 -13 3 0 12 193 118 345 191
61 29 112 56 115 60 3 3 12 6 20 6 8 0 14 6 12 13 -1 8 2 11 9 6 7 -4 17 0 24
9 11 15 127 75 147 77 4 0 9 -4 12 -9z m2673 -13 c-3 -8 -6 -5 -6 6 -1 11 2
17 5 13 3 -3 4 -12 1 -19z m-110 -40 c-5 -36 -3 -39 23 -45 19 -3 30 -13 33
-27 3 -13 3 -11 2 4 -2 14 -7 43 -11 65 -6 35 -6 39 8 27 17 -14 41 -173 37
-245 -4 -77 1 -127 12 -127 6 0 9 6 6 13 -2 6 2 25 11 41 20 41 20 176 0 255
-9 35 -12 59 -7 54 19 -19 42 -118 48 -211 6 -77 10 -96 29 -114 l22 -22 0 80
c0 44 3 84 8 88 8 8 34 -186 32 -244 0 -22 3 -31 9 -25 5 6 13 65 17 133 4 67
11 122 15 122 5 0 9 -102 10 -227 1 -126 5 -239 9 -253 4 -14 8 -20 9 -13 1 7
8 10 16 7 9 -4 13 -14 10 -28 -5 -23 23 -87 42 -93 8 -3 11 15 11 62 -1 38 3
70 10 77 9 9 12 9 12 -1 0 -7 5 -9 10 -6 14 9 13 -8 -2 -23 -9 -9 -7 -12 13
-12 16 0 20 -3 11 -9 -12 -7 -33 -112 -35 -174 -1 -36 -15 -22 -19 19 -2 25
-7 30 -21 25 -16 -6 -15 -12 13 -66 20 -38 30 -73 30 -102 l0 -43 -95 0 -96 0
21 -22 c11 -12 20 -25 20 -29 0 -4 72 -7 161 -7 151 0 162 -2 181 -21 14 -16
18 -29 13 -51 -8 -37 -80 -104 -106 -97 -20 5 -103 -66 -91 -78 4 -3 -1 -3
-11 1 -16 6 -31 38 -26 60 6 33 -1 36 -70 29 -38 -4 -79 -4 -91 0 -48 15 3 24
145 25 168 2 206 12 182 51 -10 16 -9 21 1 28 7 4 10 15 6 24 -5 13 -19 17
-64 17 -88 0 -120 -9 -120 -33 0 -20 0 -20 14 -1 21 28 30 11 15 -30 -15 -40
-51 -56 -75 -31 -17 17 -10 37 10 29 9 -3 11 3 8 26 -5 37 -34 41 -50 5 -11
-24 -33 -31 -87 -27 -17 2 -18 0 -5 -9 11 -8 5 -9 -25 -4 -43 7 -57 15 -39 22
7 2 9 13 6 25 -5 19 -10 20 -68 15 -35 -2 -64 -1 -64 4 0 5 -10 9 -22 9 -12 0
-19 3 -15 6 3 3 42 6 86 6 87 -1 108 13 74 50 -21 23 -36 19 -43 -13 -5 -19
-12 -24 -35 -23 -17 1 -40 2 -53 3 -14 1 -20 5 -17 12 10 15 -4 61 -15 54 -6
-3 -10 -1 -10 5 0 7 7 10 15 6 9 -3 19 3 25 14 6 11 17 20 24 20 7 0 35 10 62
23 44 20 52 28 58 62 1 6 5 16 10 23 5 8 2 20 -8 31 -9 10 -16 25 -16 35 0 11
-4 15 -12 10 -10 -6 -10 -4 0 8 11 14 11 18 -1 25 -7 4 -21 23 -30 42 -18 36
-11 62 21 80 12 7 13 10 3 11 -15 0 -84 -68 -101 -100 -9 -17 -8 -20 11 -20
16 0 20 -4 14 -17 -14 -36 -13 -53 3 -69 19 -19 25 -49 17 -80 -8 -34 -33 -37
-66 -9 -33 27 -86 41 -118 30 -21 -6 -21 -7 7 -43 68 -86 90 -187 63 -279
l-10 -33 84 0 c73 0 87 3 104 21 23 25 56 19 64 -12 5 -19 4 -19 -18 -5 -30
20 -35 20 -35 1 0 -12 -18 -15 -106 -15 l-105 0 8 58 c12 89 9 123 -19 183
-36 79 -59 100 -100 92 -41 -7 -58 -20 -58 -43 0 -10 -7 -23 -15 -30 -18 -15
-20 -32 -2 -28 6 1 22 -2 35 -6 15 -5 29 -3 40 6 13 9 12 7 -2 -10 -11 -13
-30 -22 -47 -22 -15 0 -31 -4 -34 -10 -8 -13 -175 -13 -195 0 -12 7 -12 11 3
28 13 14 32 20 65 20 51 1 72 18 72 60 0 24 21 52 38 52 5 0 14 30 20 68 l11
67 -3 -62 c-2 -45 -8 -68 -22 -84 -17 -20 -17 -22 -1 -16 10 4 17 2 17 -5 0
-6 7 -5 18 5 9 8 41 23 70 32 42 14 50 20 41 31 -26 32 65 100 105 78 6 -4 1
4 -11 17 -18 18 -25 21 -35 11 -18 -18 -48 -15 -55 6 -9 26 -34 52 -44 46 -5
-3 -11 2 -14 10 -17 54 -15 53 -28 31 -6 -11 -17 -36 -24 -55 -13 -33 -13 -32
-7 30 6 61 26 116 49 132 23 17 46 8 52 -22 3 -17 10 -33 14 -36 5 -3 9 -22 9
-42 0 -20 5 -44 11 -52 7 -11 8 -1 4 36 -8 61 12 118 44 127 12 3 21 0 21 -6
0 -6 3 -7 6 -4 14 14 44 -15 50 -49 7 -39 19 -37 19 3 0 15 6 28 14 31 10 3
12 0 7 -14 -5 -13 2 -10 24 11 l32 30 -30 3 c-30 3 -30 4 -37 75 -4 40 -11 80
-16 89 -7 13 -4 17 19 20 l27 3 -24 14 c-27 15 -129 16 -179 2 -30 -9 -32 -8
-27 12 2 12 14 72 26 132 29 148 32 155 68 155 26 0 29 4 36 45 4 28 10 43 17
39 6 -4 8 -23 5 -46z m2815 17 c0 -5 -5 -11 -10 -13 -5 -1 -9 4 -9 13 0 9 4
14 9 13 5 -2 10 -8 10 -13z m91 8 c-7 -2 -19 -2 -25 0 -7 3 -2 5 12 5 14 0 19
-2 13 -5z m-3807 -50 c-11 -11 -19 6 -11 24 8 17 8 17 12 0 3 -10 2 -21 -1
-24z m107 0 c-7 -2 -13 -12 -13 -21 0 -15 -2 -15 -10 -2 -15 23 -12 30 13 29
12 0 16 -3 10 -6z m1828 -16 c-1 -12 -15 -9 -19 4 -3 6 1 10 8 8 6 -3 11 -8
11 -12z m-1871 -11 c0 -17 22 -15 43 2 11 10 17 9 27 -2 16 -20 3 -39 -22 -33
-10 3 -18 2 -16 -1 2 -4 10 -19 17 -34 8 -16 18 -28 23 -28 4 0 4 -9 -2 -20
-5 -11 -14 -29 -20 -40 -5 -11 -10 -28 -11 -37 0 -12 -2 -13 -6 -5 -4 10 -10
7 -21 -10 -9 -13 -16 -26 -14 -30 1 -5 -5 -8 -14 -8 -8 0 -13 -4 -9 -9 3 -5 0
-13 -6 -17 -7 -4 -9 -3 -6 3 4 6 -12 8 -43 5 -33 -3 -50 -1 -50 7 0 6 -6 11
-14 11 -12 0 -12 6 -3 36 10 32 9 38 -8 51 -12 9 -14 14 -5 11 21 -7 45 18 25
26 -8 3 -15 1 -15 -4 0 -6 -7 -10 -15 -10 -19 0 -20 45 -2 79 12 23 102 65
119 55 4 -3 8 0 8 5 0 6 9 11 20 11 11 0 20 -6 20 -14z m130 4 c0 -5 -4 -10
-10 -10 -5 0 -10 5 -10 10 0 6 5 10 10 10 6 0 10 -4 10 -10z m1625 0 c3 -5 1
-10 -4 -10 -6 0 -11 5 -11 10 0 6 2 10 4 10 3 0 8 -4 11 -10z m4714 -95 c28
-85 30 -109 7 -113 -11 -2 -16 0 -12 6 3 6 1 14 -5 18 -8 4 -7 9 2 15 11 7 11
9 1 9 -27 0 -57 122 -35 144 9 9 17 -7 42 -79z m-6689 65 c0 -5 -4 -10 -10
-10 -5 0 -10 5 -10 10 0 6 5 10 10 10 6 0 10 -4 10 -10z m425 0 c3 -5 1 -10
-4 -10 -6 0 -11 5 -11 10 0 6 2 10 4 10 3 0 8 -4 11 -10z m-1250 -20 c3 -5 1
-10 -4 -10 -6 0 -11 5 -11 10 0 6 2 10 4 10 3 0 8 -4 11 -10z m5085 -21 c0 -5
-4 -9 -10 -9 -5 0 -10 7 -10 16 0 8 5 12 10 9 6 -3 10 -10 10 -16z m507 -214
c-4 -55 -5 -124 -2 -153 6 -49 5 -53 -12 -50 -17 3 -18 15 -15 153 2 83 8 182
15 220 l12 70 5 -70 c3 -38 2 -115 -3 -170z m-5472 197 c-3 -9 -3 -13 1 -9 10
10 33 -24 34 -51 0 -15 -4 -21 -12 -16 -8 5 -9 2 -5 -9 4 -10 2 -17 -4 -17 -6
0 -9 -6 -6 -14 8 -20 -33 -28 -72 -15 -18 6 -38 24 -46 40 -14 26 -14 28 1 22
13 -5 15 -2 10 14 -4 11 -4 28 0 36 5 15 8 14 23 -5 l18 -21 22 22 c12 12 20
29 17 36 -3 9 0 12 10 8 9 -3 13 -12 9 -21z m2860 7 c0 -7 -8 -15 -17 -17 -18
-3 -25 18 -11 32 10 10 28 1 28 -15z m-988 -111 c-2 -24 -4 -5 -4 42 0 47 2
66 4 43 2 -24 2 -62 0 -85z m733 78 c0 -8 -4 -17 -9 -21 -12 -7 -24 12 -16 25
9 15 25 12 25 -4z m370 4 c0 -5 -4 -10 -10 -10 -5 0 -10 5 -10 10 0 6 5 10 10
10 6 0 10 -4 10 -10z m-490 -30 c0 -5 -4 -10 -10 -10 -5 0 -10 5 -10 10 0 6 5
10 10 10 6 0 10 -4 10 -10z m206 -17 c-10 -10 -19 5 -10 18 6 11 8 11 12 0 2
-7 1 -15 -2 -18z m884 17 c0 -5 -4 -10 -10 -10 -5 0 -10 5 -10 10 0 6 5 10 10
10 6 0 10 -4 10 -10z m-2560 -40 c0 -5 -5 -10 -11 -10 -5 0 -7 5 -4 10 3 6 8
10 11 10 2 0 4 -4 4 -10z m1740 0 c0 -5 -2 -10 -4 -10 -3 0 -8 5 -11 10 -3 6
-1 10 4 10 6 0 11 -4 11 -10z m30 -25 c0 -8 -4 -15 -9 -15 -13 0 -22 16 -14
24 11 11 23 6 23 -9z m-8620 -35 c15 0 41 -82 35 -110 -7 -33 -26 -42 -82 -39
-22 2 -44 -1 -51 -5 -8 -5 -12 0 -12 13 0 12 -4 21 -10 21 -28 0 1 82 45 127
29 29 30 29 49 11 11 -10 23 -18 26 -18z m8493 25 c1 -5 -6 -11 -15 -13 -11
-2 -18 3 -18 13 0 17 30 18 33 0z m2776 -38 c1 -10 -3 -15 -9 -12 -5 3 -10 21
-9 38 0 27 2 29 9 12 5 -11 9 -28 9 -38z m-149 35 c0 -13 -12 -22 -22 -16 -10
6 -1 24 13 24 5 0 9 -4 9 -8z m-2700 -17 c0 -8 -4 -15 -9 -15 -13 0 -22 16
-14 24 11 11 23 6 23 -9z m4680 5 c0 -5 -5 -10 -11 -10 -5 0 -7 5 -4 10 3 6 8
10 11 10 2 0 4 -4 4 -10z m-8484 -17 c-3 -19 -16 -28 -16 -10 0 8 -6 17 -12
20 -7 3 -3 5 8 4 12 -1 21 -7 20 -14z m2234 13 c0 -11 -19 -15 -25 -6 -3 5 1
10 9 10 9 0 16 -2 16 -4z m1895 -5 c7 -12 -12 -24 -25 -16 -11 7 -4 25 10 25
5 0 11 -4 15 -9z m4529 -37 c11 -84 8 -111 -14 -117 -21 -5 -21 -8 -25 103 -1
40 7 59 26 60 4 0 9 -21 13 -46z m-7421 30 c13 -4 17 -16 17 -50 0 -41 -2 -45
-20 -39 -14 4 -20 2 -18 -6 2 -7 -6 -14 -17 -16 -14 -3 -16 -1 -7 5 9 6 2 15
-25 33 -26 17 -37 31 -38 51 -1 26 2 27 45 27 25 0 53 -3 63 -5z m2632 -14 c3
-5 -1 -10 -9 -10 -9 0 -16 5 -16 10 0 6 4 10 9 10 6 0 13 -4 16 -10z m268 -13
c9 -2 23 -9 30 -17 10 -10 9 -12 -5 -7 -15 5 -14 1 5 -31 13 -20 29 -57 36
-82 31 -106 23 -106 120 -4 47 51 95 96 106 102 11 5 52 15 90 22 39 6 88 16
111 21 49 10 192 -11 242 -36 18 -9 40 -14 48 -11 8 3 12 2 9 -4 -5 -8 15
-155 57 -415 6 -38 13 -92 15 -120 l3 -50 -16 50 c-8 28 -23 79 -34 115 l-18
65 -1 -100 c-1 -55 -6 -107 -11 -115 -8 -12 -10 -10 -10 11 0 41 -34 66 -43
32 -3 -10 -5 15 -6 55 -1 85 -21 99 -21 15 0 -32 -3 -68 -6 -80 -5 -20 -8 -20
-21 -8 -8 8 -17 31 -20 50 -8 47 -23 34 -23 -21 0 -29 -4 -44 -12 -44 -19 0
-35 13 -36 30 -1 8 -5 59 -8 113 l-7 97 32 0 c23 0 31 -5 32 -17 0 -14 2 -15
6 -3 3 8 12 21 21 28 14 11 14 12 -1 12 -9 0 -17 5 -17 12 0 9 -3 9 -12 0 -7
-7 -26 -12 -44 -12 -45 0 -50 29 -12 69 16 17 26 31 22 31 -4 0 0 6 10 13 17
12 14 14 -22 13 -35 0 -39 -3 -31 -17 6 -11 5 -17 -4 -16 -34 1 -57 -4 -57
-13 0 -5 13 -7 29 -5 22 2 28 0 25 -10 -4 -9 -13 -11 -32 -5 -15 5 -52 16 -82
25 -30 9 -56 18 -58 20 -2 2 1 14 8 27 l11 23 -20 -24 c-13 -14 -36 -25 -58
-28 -21 -3 -42 -9 -47 -14 -5 -5 6 -6 27 -2 41 6 45 -1 18 -35 -13 -15 -35
-24 -68 -28 -42 -6 -55 -14 -107 -68 -32 -33 -47 -46 -33 -28 14 18 24 38 21
46 -3 7 2 19 11 26 8 7 15 9 15 4 0 -8 30 23 84 86 l21 25 -25 -21 c-34 -28
-103 -69 -112 -67 -4 2 -5 -3 -3 -10 3 -6 -5 -18 -17 -26 -21 -13 -22 -13 -9
3 14 16 12 17 -23 11 -30 -6 -40 -4 -51 11 -14 18 -14 18 -15 -1 0 -12 5 -26
10 -31 7 -7 1 -9 -19 -6 -28 4 -28 5 -19 39 5 19 7 40 5 46 -3 7 -8 -2 -12
-20 l-7 -31 -64 1 c-78 2 -82 14 -23 81 43 49 39 62 -8 22 -15 -12 -34 -21
-40 -19 -7 3 -13 0 -13 -6 0 -6 6 -11 13 -11 6 0 4 -5 -6 -11 -9 -5 -22 -7
-29 -3 -7 4 -8 3 -4 -4 11 -18 1 -15 -38 12 -34 23 -35 24 -13 35 18 9 12 11
-35 6 -32 -3 -58 -2 -58 2 1 5 13 22 28 40 25 29 36 33 107 42 77 9 74 9 -60
8 -77 -1 -147 3 -155 8 -13 8 -13 7 -1 -9 11 -13 26 -17 58 -14 42 3 44 2 38
-22 -8 -33 -35 -59 -65 -65 -93 -18 -93 -18 -88 -3 5 12 0 14 -30 8 -21 -3
-39 -6 -42 -6 -3 0 -14 -5 -25 -11 -29 -17 -10 -28 22 -14 34 15 29 10 -20
-23 -21 -14 -47 -26 -57 -26 -18 0 -26 -16 -21 -43 1 -5 -3 -6 -9 -2 -5 3 -10
13 -10 21 0 8 -4 12 -10 9 -21 -13 -8 7 31 50 23 25 35 45 28 45 -8 0 0 11 16
24 17 13 71 59 122 102 105 90 157 125 147 99 -5 -12 -2 -14 17 -7 13 5 63 10
111 11 47 1 99 6 115 10 25 7 53 6 106 -2z m1740 -4 c-22 -8 -15 -36 7 -30 24
6 32 -14 12 -29 -10 -7 -15 -27 -15 -58 1 -42 -2 -48 -29 -62 -30 -16 -31 -15
-53 12 -22 28 -38 104 -28 131 3 7 15 11 26 10 16 -1 21 3 19 16 -2 14 4 17
35 16 21 0 32 -3 26 -6z m-3792 -19 c32 -16 33 -32 2 -19 -10 5 -23 7 -29 6
-7 -1 -14 5 -18 14 -7 19 7 19 45 -1z m159 8 c0 -5 -14 -21 -31 -38 -31 -28
-31 -24 1 24 15 22 30 29 30 14z m26 -19 c-10 -10 -19 5 -10 18 6 11 8 11 12
0 2 -7 1 -15 -2 -18z m-7376 -20 c21 -36 21 -38 3 -51 -15 -11 -18 -11 -21 3
-2 8 -7 13 -11 11 -10 -6 -8 25 3 42 4 6 4 17 1 22 -3 6 -4 10 -2 10 3 0 15
-17 27 -37z m218 -10 c15 -37 18 -62 14 -107 -3 -42 -2 -57 7 -52 6 4 11 19
11 34 0 35 12 53 28 43 9 -6 10 -15 1 -40 -11 -32 -8 -108 6 -146 l7 -20 -14
20 c-8 11 -21 38 -29 60 l-13 40 -7 -40 c-6 -38 3 -78 42 -172 25 -60 3 -56
-79 17 l-51 45 9 70 c5 39 15 104 21 146 6 42 11 93 11 113 0 49 12 45 36 -11z
m7741 -52 c1 -44 4 -87 7 -95 7 -19 0 -20 -27 -6 -13 7 -19 21 -19 44 0 30 27
136 34 136 2 0 4 -36 5 -79z m106 60 c-3 -6 4 -15 15 -21 14 -8 20 -19 18 -40
-1 -16 -6 -26 -11 -23 -5 3 -7 -5 -5 -18 2 -17 -5 -27 -25 -38 -27 -16 -29
-15 -53 14 -16 20 -24 43 -24 68 0 33 3 37 25 37 14 0 25 4 25 9 0 5 8 12 18
14 9 3 18 5 20 6 2 0 1 -3 -3 -8z m-811 -53 l16 -33 -20 24 c-11 13 -20 27
-20 32 0 17 9 9 24 -23z m-894 12 c0 -5 -2 -10 -4 -10 -3 0 -8 5 -11 10 -3 6
-1 10 4 10 6 0 11 -4 11 -10z m-5691 -74 c21 -34 29 -63 10 -36 -9 12 -10 11
-6 -7 3 -13 2 -25 -3 -28 -7 -4 -16 13 -47 93 -11 27 27 10 46 -22z m4513 -49
c4 -53 3 -58 -14 -54 -18 5 -39 -10 -55 -38 -8 -13 -26 -19 -53 -15 -11 1 -9
4 5 10 19 8 19 9 -2 9 -25 1 -38 16 -23 26 8 5 8 11 0 20 -8 10 -3 16 22 25
l33 13 -30 6 c-16 4 -25 9 -20 12 22 12 41 2 55 -28 25 -54 45 -38 48 36 3 54
5 62 16 50 8 -8 16 -40 18 -72z m8603 -22 c-4 -27 -7 -56 -7 -62 -1 -7 -6 -13
-11 -13 -5 0 -6 16 -2 38 4 24 3 34 -3 27 -6 -5 -12 -19 -14 -30 -2 -11 -4 12
-3 52 0 40 3 65 7 55 4 -9 7 -14 9 -9 1 4 3 12 4 17 1 6 3 13 4 18 1 4 7 -4
12 -18 6 -14 8 -47 4 -75z m-10867 60 c-3 -3 -9 2 -12 12 -6 14 -5 15 5 6 7
-7 10 -15 7 -18z m3381 -1 c10 -9 -45 -3 -59 6 -11 7 -5 8 20 4 19 -4 37 -8
39 -10z m-3347 -80 c1 -34 -35 -94 -57 -94 -8 0 -11 -7 -8 -19 3 -10 0 -21 -5
-25 -5 -3 -12 5 -14 19 -4 18 0 26 14 31 11 3 17 8 14 12 -3 3 0 15 8 28 9 12
16 41 17 65 1 24 5 48 7 53 7 13 23 -32 24 -70z m-2609 -31 c-9 -7 -26 -13
-37 -12 -19 0 -19 1 3 10 24 9 25 22 7 74 -4 11 4 2 18 -20 24 -37 25 -41 9
-52z m5993 36 c-2 -45 -1 -49 11 -33 13 17 14 16 12 -11 -1 -17 -1 -34 1 -40
1 -5 2 -17 1 -25 -1 -12 -3 -12 -17 2 -15 15 -37 134 -27 151 12 21 20 1 19
-44z m-46 1 c0 -11 -4 -22 -10 -25 -5 -3 -10 -12 -10 -18 0 -7 4 -6 10 3 9 14
14 7 11 -13 -1 -4 9 -27 23 -50 31 -55 41 -97 23 -97 -8 0 -32 14 -53 31 -38
30 -44 50 -23 75 7 8 2 18 -13 30 l-23 19 23 24 c13 14 22 19 22 11 0 -7 3
-11 6 -8 3 4 1 16 -5 27 -10 17 -9 20 4 15 8 -4 15 -14 15 -24z m-1940 -10 c0
-5 -4 -10 -10 -10 -5 0 -10 5 -10 10 0 6 5 10 10 10 6 0 10 -4 10 -10z m420
-46 c0 -17 -15 -25 -33 -18 -20 7 -27 27 -20 52 5 20 5 20 29 -1 13 -11 24
-26 24 -33z m4070 47 c0 -14 -35 -38 -63 -43 -19 -4 -24 -2 -18 6 5 6 9 15 9
21 0 5 8 12 17 15 26 9 55 10 55 1z m52 -5 c7 4 8 2 4 -4 -4 -7 -16 -12 -28
-12 -18 0 -19 2 -7 16 8 10 15 12 17 5 2 -6 9 -8 14 -5z m771 -3 c4 -2 5 -9 1
-14 -3 -6 3 -13 15 -16 23 -6 28 -19 9 -25 -23 -7 -103 7 -101 17 0 6 -3 9 -9
7 -9 -2 -4 12 15 35 8 11 46 9 70 -4z m-8953 -37 c0 -6 -7 -1 -15 10 -8 10
-15 23 -15 28 0 6 7 1 15 -10 8 -10 15 -23 15 -28z m12767 2 c-3 -7 -5 -2 -5
12 0 14 2 19 5 13 2 -7 2 -19 0 -25z m-8297 -2 c0 -2 -7 -6 -15 -10 -8 -3 -15
-1 -15 4 0 6 7 10 15 10 8 0 15 -2 15 -4z m-4377 -77 c14 -26 15 -34 5 -48
-12 -14 -11 -14 5 -2 11 9 17 10 18 2 1 -6 2 -14 3 -19 0 -4 13 -21 29 -37 15
-16 27 -33 27 -37 0 -3 6 -13 14 -20 7 -8 51 -63 97 -123 122 -162 272 -332
288 -328 4 1 63 -54 131 -122 68 -69 125 -125 128 -125 7 0 161 -124 161 -131
1 -3 -18 -16 -41 -30 -30 -16 -59 -24 -93 -24 -49 0 -51 1 -138 84 -53 51 -86
90 -82 98 2 8 1 12 -4 9 -10 -6 -63 48 -59 60 2 5 0 9 -4 9 -11 0 -78 68 -78
79 1 6 10 0 20 -13 11 -13 20 -19 20 -14 0 13 -35 44 -42 37 -9 -9 -99 107
-91 118 3 7 1 8 -6 4 -6 -4 -14 0 -18 11 -3 10 -20 36 -38 58 -83 105 -237
353 -229 367 5 7 2 8 -6 3 -10 -6 -12 -4 -7 8 4 10 2 16 -4 14 -6 -1 -26 24
-44 57 -26 46 -31 62 -22 72 20 22 41 16 60 -17z m4247 21 c0 -7 6 -7 20 0 11
6 21 8 21 5 1 -3 2 -9 3 -14 0 -6 7 -16 14 -22 18 -19 15 -25 -15 -24 -14 0
-28 -5 -30 -12 -3 -7 3 -9 16 -6 14 3 23 0 27 -11 3 -9 11 -16 18 -16 16 0 38
-38 30 -52 -4 -6 -3 -8 3 -5 6 4 16 1 22 -7 9 -10 7 -17 -6 -27 -15 -12 -16
-12 -11 2 5 13 2 16 -12 12 -11 -3 -16 -11 -13 -19 7 -19 -11 -18 -57 6 -41
21 -64 44 -33 34 14 -5 15 -4 4 4 -8 6 -20 8 -28 5 -20 -8 -16 11 7 32 25 23
25 28 -2 40 -21 9 -23 16 -19 70 1 17 41 21 41 5z m140 -26 c0 -2 -9 0 -20 6
-11 6 -20 13 -20 16 0 2 9 0 20 -6 11 -6 20 -13 20 -16z m6115 -5 c17 0 37 -4
45 -9 12 -8 13 -10 1 -10 -8 0 -23 -8 -33 -17 -18 -16 -19 -16 -13 3 4 15 3
14 -6 -3 -6 -12 -18 -24 -25 -27 -11 -4 -12 -1 -4 14 13 25 13 40 -1 17 -13
-23 -29 -13 -29 20 0 20 3 24 18 18 9 -4 31 -7 47 -6z m665 5 c0 -10 -44 -59
-55 -61 -14 -2 -6 29 12 50 15 16 43 24 43 11z m-7550 -14 c0 -5 -4 -10 -10
-10 -5 0 -10 5 -10 10 0 6 5 10 10 10 6 0 10 -4 10 -10z m327 4 c-3 -4 1 -20
9 -37 11 -21 18 -26 24 -17 9 15 30 5 30 -16 0 -8 7 -26 16 -40 10 -14 13 -24
8 -23 -16 3 -74 -13 -74 -21 0 -5 17 -19 37 -31 35 -22 49 -23 195 -24 149 -1
159 -2 189 -24 29 -21 38 -23 98 -17 127 14 171 23 171 38 0 6 9 8 20 5 16 -4
20 -2 15 12 -9 28 25 50 90 56 32 3 63 11 67 18 4 7 6 1 6 -13 -1 -14 -7 -28
-12 -32 -13 -9 19 -78 36 -78 7 0 19 -9 26 -20 10 -17 23 -20 81 -20 64 0 70
2 73 22 2 14 13 24 31 29 15 4 27 3 27 -2 0 -5 -4 -9 -10 -9 -5 0 -7 -6 -4
-14 3 -8 26 -17 52 -21 111 -15 111 -15 105 1 -3 8 1 14 8 14 9 1 7 6 -6 16
-19 15 -19 15 10 8 33 -8 85 -41 85 -54 0 -5 19 -13 43 -19 66 -15 -383 0
-1018 35 -140 8 -243 9 -375 3 l-105 -4 -3 -32 c-3 -26 -9 -33 -33 -38 -16 -4
-34 -15 -39 -25 -15 -27 -12 -137 5 -200 17 -64 21 -505 5 -530 -7 -11 -10 -6
-11 20 -1 33 -2 32 -13 -15 l-13 -50 -5 35 -5 35 -1 -37 c-2 -31 2 -38 26 -46
26 -10 26 -10 3 -11 -16 -1 -21 -5 -17 -16 3 -9 6 -105 6 -215 l1 -200 42 -2
42 -1 -43 -4 c-38 -4 -43 -7 -40 -26 4 -28 49 -34 236 -35 118 -1 132 1 132
16 0 14 2 15 10 2 6 -9 5 -17 -3 -22 -14 -9 -5 -11 88 -28 74 -13 105 -25 105
-40 0 -5 -96 -9 -220 -9 -130 0 -220 4 -220 10 0 5 12 9 28 10 23 0 24 2 7 8
-15 6 -10 9 24 15 24 4 42 8 40 11 -2 2 -49 6 -104 9 -55 2 -89 1 -75 -3 44
-14 -83 -34 -170 -28 -41 4 -115 9 -165 13 -49 4 -94 10 -100 14 -5 5 -47 7
-92 6 -60 -1 -83 1 -83 10 0 7 10 15 23 17 12 2 4 3 -18 0 -22 -2 -96 -6 -165
-8 l-125 -4 100 18 c55 10 85 19 67 20 -33 1 -224 -19 -231 -25 -4 -4 68 -154
84 -174 7 -8 20 -37 30 -65 10 -27 22 -54 25 -60 4 -5 13 -27 20 -49 9 -29 15
-35 22 -25 6 10 7 7 3 -9 -4 -13 -4 -41 0 -62 6 -36 8 -38 22 -24 19 19 24 15
16 -14 -3 -12 -9 -19 -14 -16 -5 3 -9 -2 -9 -11 0 -9 3 -14 8 -12 4 3 8 -7 9
-21 1 -15 7 -74 13 -132 16 -153 7 -231 -52 -435 -38 -133 -50 -165 -60 -165
-6 0 -7 -7 -4 -16 6 -16 -62 -159 -72 -150 -2 3 2 20 11 38 8 18 18 53 22 78
9 63 15 81 25 75 11 -7 22 24 14 37 -5 7 -13 4 -22 -8 -14 -18 -14 -18 -8 6
24 85 25 94 10 104 -8 6 -17 36 -21 66 -3 30 -13 63 -21 73 -8 9 -10 17 -4 17
7 0 7 10 0 35 -6 19 -15 32 -20 29 -4 -3 -8 -2 -9 3 -6 70 -16 101 -45 132
-13 14 -24 29 -24 32 0 4 -11 10 -25 13 -13 3 -53 33 -89 66 -35 33 -67 60
-71 60 -10 0 -58 50 -79 83 -10 15 -24 27 -30 26 -36 -4 -49 4 -63 41 -9 22
-20 37 -24 34 -5 -3 -9 -1 -9 5 0 5 -25 22 -56 38 -31 15 -64 32 -74 38 -26
13 -43 126 -21 139 13 8 2 93 -20 154 -10 28 -16 52 -13 52 4 0 1 7 -6 15 -7
8 -9 15 -4 16 51 3 87 10 115 23 61 28 104 57 101 67 -1 5 6 9 15 7 10 -2 17
2 16 9 -2 7 3 10 11 7 8 -3 22 7 34 23 24 34 40 103 23 103 -6 0 -11 7 -11 15
0 35 39 8 140 -95 105 -107 108 -109 125 -90 21 24 43 26 51 5 9 -24 27 -18
22 8 -4 21 -1 22 36 18 l41 -5 -35 -6 c-63 -12 -9 -20 70 -11 83 9 186 4 210
-9 11 -7 4 -10 -25 -11 -22 -1 -53 -5 -70 -9 l-30 -8 30 -2 c27 -1 28 -2 10
-11 -13 -6 5 -7 55 -3 139 12 234 12 255 1 22 -13 12 -15 -175 -32 -121 -11
-138 -27 -20 -20 86 6 173 20 254 40 28 8 28 7 24 -29 l-4 -36 41 0 c22 0 45
4 52 8 7 4 11 38 12 87 0 44 0 126 1 183 0 57 5 133 11 170 14 81 18 133 12
149 -3 6 -23 15 -46 18 -34 6 -38 9 -25 19 8 6 18 21 22 34 6 18 -2 31 -47 75
-46 44 -56 61 -66 106 -12 58 -7 113 15 148 16 26 18 37 5 28 -15 -9 -9 37 9
70 26 48 31 96 16 155 -9 37 -11 73 -6 110 4 30 5 60 3 66 -2 6 1 22 6 36 7
20 15 25 30 21 18 -4 21 -1 21 23 0 32 -29 58 -55 48 -8 -3 -15 -1 -15 5 0 6
7 11 15 11 8 0 15 5 15 10 0 19 28 10 33 -10 6 -23 27 -27 27 -5 0 10 10 15
34 15 25 0 38 6 51 26 12 19 20 23 28 15 9 -9 8 -16 -1 -31 -9 -16 -9 -18 2
-14 7 3 18 -2 25 -9 9 -12 8 -18 -4 -30 -8 -9 -15 -18 -15 -22 0 -10 30 -38
30 -28 0 4 4 1 10 -7 5 -8 32 -16 69 -20 60 -6 61 -5 63 20 0 14 2 30 3 35 1
6 5 40 9 78 6 51 11 67 23 67 9 0 14 -3 10 -6z m1538 -54 c10 -11 24 -20 32
-20 7 0 13 -4 13 -9 0 -12 -29 -41 -41 -41 -17 0 -47 33 -42 46 3 8 1 14 -5
14 -5 0 -12 7 -16 15 -8 23 37 19 59 -5z m1690 -21 c-10 -15 -25 -10 -19 6 4
8 10 12 15 9 5 -3 7 -10 4 -15z m-4452 -23 c12 -13 33 -45 46 -71 19 -38 22
-57 18 -99 -3 -28 -8 -59 -12 -68 -10 -25 39 -72 68 -64 32 8 106 -14 122 -37
8 -11 28 -22 47 -24 17 -2 34 -7 37 -12 4 -4 16 -13 28 -20 25 -13 48 -55 47
-86 -2 -62 -18 -161 -30 -190 -13 -32 -15 -33 -51 -24 -21 5 -68 9 -104 9 -47
0 -70 4 -79 15 -7 8 -17 12 -22 9 -6 -4 -8 2 -3 15 4 13 2 21 -6 21 -20 0 -1
-77 31 -122 16 -22 32 -57 36 -77 3 -20 8 -44 10 -53 5 -15 -1 -17 -40 -14
-52 4 -203 72 -217 97 -18 35 -11 49 25 49 18 0 38 6 44 13 13 15 -1 43 -16
33 -15 -9 -71 14 -82 34 -14 25 -13 60 2 60 6 0 4 8 -7 20 -14 15 -16 27 -10
57 15 74 15 81 -5 76 -28 -7 -32 13 -10 49 11 18 20 43 20 56 0 15 6 22 20 22
11 0 20 5 20 10 0 6 -9 10 -20 10 -11 0 -23 7 -27 16 -7 20 22 83 42 89 8 3
23 8 33 12 16 6 16 6 0 10 -21 5 -24 23 -5 23 7 0 18 9 25 20 10 17 3 28 -11
18 -2 -2 -12 3 -21 11 -17 14 -18 64 -2 90 4 6 3 11 -2 11 -6 0 -15 -14 -21
-31 -9 -25 -8 -38 4 -62 21 -41 19 -44 -10 -17 -31 29 -33 71 -4 111 25 36 62
38 92 5z m8427 14 c0 -5 -4 -10 -10 -10 -5 0 -10 5 -10 10 0 6 5 10 10 10 6 0
10 -4 10 -10z m1843 -10 c-3 -12 -8 -19 -11 -16 -5 6 5 36 12 36 2 0 2 -9 -1
-20z m39 -15 c3 -14 1 -25 -3 -25 -5 0 -9 11 -9 25 0 14 2 25 4 25 2 0 6 -11
8 -25z m-1485 -92 c-2 -21 -4 -6 -4 32 0 39 2 55 4 38 2 -18 2 -50 0 -70z
m-12167 45 c0 -23 -4 -29 -16 -24 -9 3 -20 6 -24 6 -5 0 -2 13 8 29 20 35 32
31 32 -11z m12217 -20 c-2 -13 -4 -5 -4 17 -1 22 1 32 4 23 2 -10 2 -28 0 -40z
m-6050 30 c21 2 23 -3 21 -40 -1 -34 3 -44 25 -60 31 -22 36 -54 10 -61 -10
-3 6 -5 35 -6 30 -1 52 -6 52 -12 0 -7 -31 -8 -102 -4 -111 8 -160 27 -209 82
-13 15 -16 21 -6 14 9 -7 18 -11 18 -7 1 3 2 10 3 14 0 5 9 16 19 26 14 14 15
21 6 32 -18 22 1 16 38 -12 30 -23 47 -22 23 2 -18 18 0 46 24 38 11 -4 31 -7
43 -6z m7081 -6 c3 -9 -2 -13 -14 -10 -9 1 -19 9 -22 16 -3 9 2 13 14 10 9 -1
19 -9 22 -16z m-13128 -78 c0 -2 -9 -8 -19 -13 -16 -9 -18 -8 -14 8 3 10 -3
32 -13 47 -16 26 -14 25 14 -5 18 -19 32 -36 32 -37z m11704 57 c3 -5 -1 -14
-8 -20 -16 -13 -32 2 -21 19 8 12 22 13 29 1z m-3938 -43 c1 -16 2 -28 1 -28
-1 0 -15 14 -31 31 l-29 31 28 -4 c22 -2 28 -9 31 -30z m-2111 2 c-3 -5 -14
-10 -23 -10 -15 0 -15 2 -2 10 20 13 33 13 25 0z m2962 -22 c-3 -7 -5 -2 -5
12 0 14 2 19 5 13 2 -7 2 -19 0 -25z m-1027 7 c-7 -9 -15 -13 -19 -10 -3 3 1
10 9 15 21 14 24 12 10 -5z m5350 -6 c0 -5 -7 -9 -15 -9 -15 0 -20 12 -9 23 8
8 24 -1 24 -14z m-1313 -5 c9 -23 -19 -37 -37 -18 -13 13 -13 16 0 24 21 14
30 12 37 -6z m-3987 -14 c0 -13 -5 -18 -15 -14 -16 7 -19 17 -8 27 12 13 23 7
23 -13z m-7590 -17 c13 -17 17 -29 10 -33 -6 -4 -8 -15 -4 -25 10 -26 -10 -12
-38 27 -12 17 -16 28 -9 24 10 -6 11 -3 6 13 -9 29 9 26 35 -6z m12270 17 c0
-5 -6 -10 -14 -10 -20 0 -56 -53 -56 -82 0 -21 -4 -24 -28 -20 -21 3 -36 -4
-60 -26 -33 -31 -44 -66 -17 -56 21 8 45 -14 45 -40 0 -13 -12 -33 -26 -47
l-26 -24 6 23 c8 23 -7 31 -20 10 -5 -8 -11 -2 -16 17 -4 17 -3 34 2 39 15 15
12 29 -4 23 -10 -4 -12 0 -9 14 3 10 9 19 13 19 4 0 12 11 18 25 7 14 20 25
31 25 19 0 38 18 56 53 19 39 105 85 105 57z m-6635 -10 c3 -5 1 -10 -4 -10
-6 0 -11 5 -11 10 0 6 2 10 4 10 3 0 8 -4 11 -10z m7125 0 c0 -5 -4 -10 -10
-10 -5 0 -10 5 -10 10 0 6 5 10 10 10 6 0 10 -4 10 -10z m-766 -120 c-6 -105
-5 -120 9 -120 13 0 13 -5 -4 -39 -10 -22 -16 -47 -13 -55 3 -9 2 -16 -4 -16
-5 0 -10 -6 -9 -12 1 -35 -4 -58 -13 -58 -12 0 -19 29 -24 107 -4 53 -2 65 14
76 15 11 20 32 26 125 4 62 11 112 16 112 5 0 6 -52 2 -120z m-8024 85 c0 -19
-20 -29 -31 -18 -14 14 0 43 17 36 8 -3 14 -11 14 -18z m7660 15 c0 -5 -4 -10
-10 -10 -5 0 -10 5 -10 10 0 6 5 10 10 10 6 0 10 -4 10 -10z m-11571 -52 c-4
-24 -8 -46 -9 -50 0 -5 -4 -8 -10 -8 -13 0 -13 66 1 91 16 32 27 13 18 -33z
m10978 45 c-20 -2 -52 -2 -70 0 -17 2 0 4 38 4 39 0 53 -2 32 -4z m-2710 -43
c14 -11 21 -20 15 -20 -12 0 -60 39 -49 40 5 0 20 -9 34 -20z m3410 -2 c-3 -8
-6 -5 -6 6 -1 11 2 17 5 13 3 -3 4 -12 1 -19z m-5117 -8 c73 -7 66 -8 -45 -4
-71 3 -131 7 -134 9 -6 7 81 4 179 -5z m-1515 -20 c-3 -5 -12 -10 -19 -10 -16
0 -68 -65 -60 -73 3 -3 1 -14 -5 -24 -9 -16 -10 -15 -11 7 0 31 31 79 62 96
28 16 41 17 33 4z m-4992 -21 c7 -11 4 -24 -9 -44 -12 -19 -20 -23 -23 -14 -2
8 -8 17 -13 20 -13 8 10 61 24 57 6 -2 16 -11 21 -19z m8527 17 c0 -2 -9 -6
-20 -9 -11 -3 -18 -1 -14 4 5 9 34 13 34 5z m-5836 -23 c4 -9 3 -20 -2 -25 -6
-6 -11 1 -14 16 -6 29 6 35 16 9z m4786 -3 c0 -11 -43 -12 -115 0 -47 7 -45 7
33 9 49 0 82 -3 82 -9z m214 -36 c3 -8 2 -12 -4 -9 -6 3 -10 10 -10 16 0 14 7
11 14 -7z m53 -6 c0 -13 -1 -17 -4 -10 -3 6 -8 10 -12 8 -4 -3 -8 1 -8 9 0 24
23 17 24 -7z m-7675 -25 c21 -20 38 -43 38 -50 0 -7 3 -12 8 -11 7 2 67 -48
108 -90 13 -13 27 -21 32 -18 6 3 37 -18 70 -47 33 -28 76 -65 97 -82 78 -61
109 -96 96 -105 -11 -6 -10 -14 4 -38 10 -17 24 -28 30 -25 7 2 15 -7 17 -21
6 -32 4 -32 -29 2 -16 15 -32 27 -38 27 -18 1 -76 38 -139 90 -71 58 -376 362
-376 375 0 8 28 29 40 30 2 0 21 -17 42 -37z m11483 27 c-3 -5 -10 -10 -16
-10 -5 0 -9 5 -9 10 0 6 7 10 16 10 8 0 12 -4 9 -10z m-4184 -37 c30 -32 31
-34 5 -15 -15 12 -32 19 -37 16 -5 -3 -9 4 -9 15 0 12 1 21 3 21 2 0 19 -17
38 -37z m789 23 c0 -2 -7 -7 -16 -10 -8 -3 -12 -2 -9 4 6 10 25 14 25 6z m263
-48 c7 -4 62 -8 122 -9 l110 -2 -115 -8 c-109 -8 -116 -7 -132 13 -10 11 -18
30 -17 42 0 19 1 19 10 -4 6 -13 15 -28 22 -32z m2034 30 c27 -7 49 -13 51
-14 1 0 5 -37 8 -80 8 -96 14 -107 15 -28 1 32 5 70 9 84 5 15 8 -50 9 -157
l1 -183 60 -77 c32 -42 57 -79 54 -82 -2 -3 -37 28 -76 67 -39 40 -73 70 -75
68 -3 -2 25 -40 61 -84 l66 -80 -1 -98 c-2 -121 -15 -193 -19 -99 -1 33 -2 74
-2 90 1 29 1 29 -7 5 -5 -14 -9 -54 -10 -90 -2 -133 -14 -290 -23 -290 -4 0
-8 55 -8 123 -1 167 -21 132 -28 -49 -3 -73 -9 -131 -13 -128 -5 3 -9 62 -8
132 1 70 -3 138 -8 152 -8 19 -11 -22 -14 -157 -3 -132 -8 -186 -17 -195 -11
-11 -13 34 -11 244 l2 257 -62 72 c-100 116 -96 102 -93 273 1 83 5 193 8 244
l6 92 39 0 c21 0 60 -5 86 -12z m-3214 -13 c4 -8 2 -17 -3 -20 -6 -4 -10 3
-10 14 0 25 6 27 13 6z m3822 5 c3 -5 1 -10 -4 -10 -6 0 -11 5 -11 10 0 6 2
10 4 10 3 0 8 -4 11 -10z m-6317 -34 c99 1 162 -2 162 -8 0 -5 -12 -8 -27 -7
-16 1 -54 1 -86 1 l-59 -2 7 -103 7 -104 -28 -22 c-15 -12 -34 -19 -41 -17
-11 4 -11 1 -2 -15 8 -17 17 -20 40 -15 l29 6 0 -56 c0 -30 5 -64 10 -75 10
-18 7 -19 -39 -19 -39 0 -66 -9 -123 -39 -40 -21 -78 -49 -84 -61 -7 -12 -17
-27 -23 -33 -6 -6 -11 -19 -11 -28 0 -9 -7 -22 -16 -30 -8 -7 -24 -29 -35 -48
l-20 -36 6 40 c4 22 14 51 23 64 9 13 22 31 27 40 6 9 12 18 15 21 3 3 13 17
23 32 9 15 35 37 57 48 42 21 61 60 42 83 -6 7 -13 41 -17 77 -10 103 -13 114
-30 100 -13 -10 -15 -8 -15 15 0 20 4 26 14 22 10 -4 13 -1 10 7 -3 8 -1 17 5
21 6 3 11 33 11 65 l0 59 -67 0 c-130 -1 -153 1 -153 11 0 5 41 8 100 6 55 -1
100 0 100 4 0 3 -6 12 -12 20 -7 8 -2 6 12 -6 23 -18 37 -20 188 -18z m3539 2
c-3 -13 -11 -45 -17 -71 -7 -27 -18 -51 -26 -54 -8 -3 -14 -14 -14 -25 0 -18
-7 -19 -100 -16 -121 3 -118 19 4 19 49 0 86 4 86 9 0 6 -32 10 -71 10 -71 0
-71 0 -48 18 41 29 62 41 117 68 36 18 52 31 52 45 0 10 5 19 11 19 7 0 9 -9
6 -22z m1016 5 c-7 -2 -21 -2 -30 0 -10 3 -4 5 12 5 17 0 24 -2 18 -5z m-5483
-13 c0 -5 -5 -10 -11 -10 -5 0 -7 5 -4 10 3 6 8 10 11 10 2 0 4 -4 4 -10z
m1638 -9 c1 -1 2 -79 2 -174 0 -115 4 -177 11 -184 6 -6 13 -26 15 -44 2 -18
7 -35 10 -38 4 -3 4 4 1 17 -3 12 -2 22 2 22 10 0 33 -41 27 -48 -3 -3 -6 1
-6 9 0 12 -2 12 -9 0 -6 -9 -2 -20 10 -32 16 -16 19 -33 18 -111 l-1 -93 -12
97 c-10 85 -15 100 -40 127 -28 29 -46 32 -46 8 0 -7 4 -6 11 3 9 12 10 11 6
-5 -3 -11 -8 -29 -13 -39 -5 -14 -4 -17 4 -12 8 5 12 0 12 -13 0 -25 -9 -27
-25 -4 -11 15 -12 14 -11 -8 1 -16 7 -24 18 -23 9 1 14 -4 12 -11 -3 -7 -1
-16 5 -20 6 -3 11 -11 11 -18 0 -6 -27 15 -60 48 -32 32 -56 63 -53 68 3 6 1
7 -5 3 -23 -14 -26 19 -37 344 l-4 125 -66 3 c-36 2 -64 6 -61 10 3 5 260 -1
274 -7z m212 4 c0 -7 -30 -13 -34 -7 -3 4 4 9 15 9 10 1 19 0 19 -2z m231 -2
c7 -34 5 -122 -2 -117 -5 3 -9 14 -9 26 0 14 -5 18 -15 15 -18 -8 -27 6 -19
28 6 13 9 14 16 3 8 -10 9 -10 6 1 -7 26 -26 23 -37 -6 l-10 -28 2 30 c1 18
-3 29 -10 28 -6 -1 -14 4 -17 12 -4 12 5 15 44 15 28 0 51 -3 51 -7z m1915
-13 c15 -6 24 -13 21 -16 -3 -3 -15 -1 -26 6 -19 9 -24 7 -42 -25 -27 -45 -35
-39 -15 9 16 39 21 41 62 26z m3104 -6 c0 -8 -5 -12 -10 -9 -6 4 -8 11 -5 16
9 14 15 11 15 -7z m-6554 -2 c22 -14 35 -127 28 -241 -4 -61 -10 -111 -13
-111 -3 0 -13 5 -21 10 -12 7 -16 4 -20 -18 -3 -15 -9 24 -13 86 -4 62 -8 116
-8 120 -1 4 -1 37 0 75 1 62 3 67 24 67 18 0 19 2 7 10 -8 5 -10 10 -5 10 6 0
15 -4 21 -8z m4103 -24 c31 -34 41 -63 19 -56 -14 5 -58 65 -58 79 0 15 8 10
39 -23z m-799 7 c11 -13 10 -14 -3 -9 -8 3 -26 0 -39 -6 l-23 -11 24 20 c28
25 25 25 41 6z m-7953 -10 c9 -24 -1 -27 -15 -5 -8 13 -8 20 -2 20 6 0 13 -7
17 -15z m11283 5 c0 -5 -7 -10 -15 -10 -8 0 -15 5 -15 10 0 6 7 10 15 10 8 0
15 -4 15 -10z m-405 -202 c-6 -52 1 -68 64 -147 19 -24 28 -42 20 -39 -8 2
-31 29 -51 58 -21 29 -38 49 -38 44 0 -5 -5 -2 -10 6 -11 17 -13 172 -3 221 7
31 8 28 15 -31 5 -36 6 -86 3 -112z m2505 163 c0 -12 -41 -63 -47 -57 -5 5 35
66 43 66 2 0 4 -4 4 -9z m-5406 -12 c-3 -5 -20 -8 -39 -6 -43 3 -36 15 10 15
19 0 32 -4 29 -9z m-2834 -29 c-13 -11 -28 -20 -34 -20 -6 0 2 12 18 26 15 14
31 23 34 20 3 -3 -5 -15 -18 -26z m-314 5 c-8 -8 -18 -15 -22 -15 -3 0 -1 7 6
15 7 8 17 15 22 15 5 0 3 -7 -6 -15z m-736 -5 c0 -5 -4 -10 -10 -10 -5 0 -10
5 -10 10 0 6 5 10 10 10 6 0 10 -4 10 -10z m3867 -16 c-3 -3 -12 -4 -19 -1 -8
3 -5 6 6 6 11 1 17 -2 13 -5z m98 -1 c-11 -3 -23 -10 -27 -16 -4 -6 -10 -8
-15 -4 -10 11 17 27 42 26 l20 -1 -20 -5z m202 -8 c-7 -7 -16 -11 -22 -9 -5 2
-37 8 -70 13 l-60 9 82 0 c64 -1 79 -3 70 -13z m631 8 c-27 -2 -69 -2 -95 0
-27 2 -5 3 47 3 52 0 74 -1 48 -3z m205 0 c-13 -2 -33 -2 -45 0 -13 2 -3 4 22
4 25 0 35 -2 23 -4z m565 0 c-10 -2 -28 -2 -40 0 -13 2 -5 4 17 4 22 1 32 -1
23 -4z m-1698 -45 c0 -19 -2 -20 -10 -8 -13 19 -13 30 0 30 6 0 10 -10 10 -22z
m545 -63 c-14 -53 -19 -36 -8 28 3 21 9 35 14 30 4 -4 2 -31 -6 -58z m3642
-137 c-10 -323 -30 -588 -43 -575 -3 2 2 84 11 181 8 97 15 271 15 387 0 152
3 209 12 209 8 0 10 -52 5 -202z m-4227 188 c0 -11 -19 -15 -25 -6 -3 5 1 10
9 10 9 0 16 -2 16 -4z m-2003 -28 c-3 -8 -6 -5 -6 6 -1 11 2 17 5 13 3 -3 4
-12 1 -19z m2830 -25 c-3 -10 -5 -2 -5 17 0 19 2 27 5 18 2 -10 2 -26 0 -35z
m4573 43 c0 -3 -4 -8 -10 -11 -5 -3 -10 -1 -10 4 0 6 5 11 10 11 6 0 10 -2 10
-4z m-8268 -65 c-2 -16 2 -34 10 -41 15 -15 12 -66 -4 -76 -6 -4 -7 2 -3 16 4
13 2 40 -5 61 -7 20 -10 45 -7 53 10 25 14 19 9 -13z m2448 -11 c0 -5 -2 -10
-4 -10 -3 0 -8 5 -11 10 -3 6 -1 10 4 10 6 0 11 -4 11 -10z m658 3 c-16 -2
-40 -2 -55 0 -16 2 -3 4 27 4 30 0 43 -2 28 -4z m85 0 c-7 -2 -19 -2 -25 0 -7
3 -2 5 12 5 14 0 19 -2 13 -5z m370 -23 c10 -16 16 -30 14 -30 -2 0 -13 14
-25 30 -13 17 -19 30 -14 30 4 0 16 -13 25 -30z m158 16 c-6 -8 -10 -19 -9
-26 2 -7 -2 -14 -9 -17 -7 -3 -11 7 -11 26 1 24 6 31 21 31 15 0 17 -3 8 -14z
m969 5 c0 -5 -9 -7 -20 -4 -11 3 -20 7 -20 9 0 2 9 4 20 4 11 0 20 -4 20 -9z
m-2416 -127 c5 -19 11 -24 24 -19 9 3 -1 -9 -23 -28 -22 -19 -42 -33 -45 -30
-3 3 9 16 25 29 17 13 25 24 19 24 -7 0 -14 11 -16 25 -7 33 8 32 16 -1z
m-136 -12 c-1 -9 2 -39 5 -67 6 -48 6 -48 -11 15 -10 36 -16 68 -14 73 6 13
21 -2 20 -21z m992 7 c0 -5 -22 -9 -50 -9 -27 0 -50 4 -50 8 0 5 23 9 50 9 28
1 50 -3 50 -8z m668 -6 c-15 -2 -42 -2 -60 0 -18 2 -6 4 27 4 33 0 48 -2 33
-4z m965 -4 c-8 -8 -30 -8 -75 -1 l-63 9 75 2 c54 1 71 -2 63 -10z m-3 -51 c0
-18 -2 -20 -9 -8 -6 8 -7 18 -5 22 9 14 14 9 14 -14z m-6562 -12 c63 -32 212
-79 277 -86 39 -5 95 -12 125 -16 47 -6 53 -5 40 7 -8 8 -37 25 -65 38 -42 21
-46 26 -27 29 12 2 53 -3 90 -12 37 -8 127 -16 199 -18 73 -2 133 -4 133 -5 0
-1 -15 -10 -32 -21 -69 -41 -275 -56 -382 -28 -32 9 -70 13 -84 9 -22 -5 -24
-9 -18 -43 3 -21 15 -57 26 -81 24 -54 24 -64 3 -140 -16 -57 -17 -59 -29 -37
-6 13 -15 46 -18 73 -5 31 -19 66 -37 92 -32 45 -32 86 0 110 13 10 10 13 -24
14 -22 0 -52 0 -67 -1 -14 -1 -29 4 -33 10 -3 5 -9 8 -13 6 -4 -2 -14 3 -22
12 -13 14 -12 15 3 9 27 -10 20 6 -17 42 -19 18 -35 28 -37 22 -2 -6 -10 -2
-17 9 -14 24 -10 25 26 6z m316 -26 c5 -5 7 -10 3 -10 -12 0 -77 29 -77 34 0
7 63 -13 74 -24z m4256 0 c13 -9 13 -10 0 -9 -8 0 -24 4 -35 9 l-20 9 20 0
c11 0 27 -4 35 -9z m-4331 -21 c23 -8 29 -14 20 -20 -7 -4 -25 -1 -41 7 -47
24 -34 32 21 13z m4121 -19 c0 -14 -28 -19 -33 -5 -3 7 -3 15 0 18 7 7 33 -3
33 -13z m720 11 c65 -1 100 -5 91 -10 -8 -5 -41 -7 -74 -5 -57 3 -59 3 -43
-15 9 -9 16 -21 16 -24 0 -12 -75 4 -86 18 -6 8 -15 11 -20 6 -5 -4 -29 -14
-53 -21 -40 -13 -44 -12 -57 5 -12 16 -12 21 1 35 12 13 29 17 68 15 29 -2 99
-4 157 -4z m2305 -44 c16 -23 29 -51 29 -62 -5 -194 -8 -236 -12 -175 -3 47
-6 59 -12 45 -6 -13 -9 9 -9 63 -1 45 -5 82 -9 82 -9 0 -10 -14 -21 -215 -8
-127 -8 -125 -9 88 -1 119 1 217 6 217 4 -1 20 -20 37 -43z m-3428 11 c-3 -8
-6 -5 -6 6 -1 11 2 17 5 13 3 -3 4 -12 1 -19z m2455 15 c-62 -2 -161 -2 -220
0 -59 1 -8 3 113 3 121 0 169 -2 107 -3z m208 -1 c0 -5 -13 -7 -30 -4 -16 2
-30 6 -30 8 0 2 14 4 30 4 17 0 30 -4 30 -8z m1077 -74 c-2 -13 -4 -5 -4 17
-1 22 1 32 4 23 2 -10 2 -28 0 -40z m-9252 12 c4 -6 3 -9 -2 -8 -14 4 -53 -13
-53 -23 0 -5 -8 -9 -17 -9 -12 0 -6 8 17 25 40 27 46 29 55 15z m5615 2 c0 -5
-29 -40 -64 -78 -131 -142 -160 -183 -172 -239 -12 -55 -14 -202 -4 -252 10
-49 10 -57 -7 -75 -10 -11 -30 -26 -45 -34 -31 -16 -88 -19 -88 -4 0 6 17 10
38 10 40 0 82 23 82 44 0 7 -10 32 -22 57 -20 38 -23 58 -22 147 1 56 -2 102
-5 102 -14 0 -111 -37 -107 -41 2 -2 -7 -5 -21 -6 -28 -1 -127 -29 -158 -44
-17 -8 -17 -9 5 -4 14 3 52 10 85 15 33 6 89 18 124 26 35 8 65 13 68 10 3 -2
-7 -24 -21 -49 -26 -44 -59 -67 -96 -67 -14 0 -18 -5 -13 -16 5 -14 2 -15 -18
-8 -13 5 -55 9 -94 9 -62 0 -111 -6 -270 -34 l-40 -7 50 -8 c28 -5 60 -15 73
-23 18 -11 39 -13 90 -7 37 3 70 12 74 18 5 8 8 7 8 -2 0 -9 9 -9 38 3 34 15
36 15 21 0 -30 -31 -175 -65 -288 -68 -138 -4 -300 8 -315 23 -8 9 -6 11 9 7
46 -13 133 -17 175 -8 25 5 36 9 25 10 -20 2 -55 23 -55 34 0 3 8 7 18 10 9 2
-17 8 -58 12 -99 11 -59 23 75 23 120 0 172 9 172 28 0 11 -18 14 -86 14 -84
0 -289 -21 -384 -39 -44 -8 -48 -7 -44 9 4 15 0 18 -24 15 -39 -5 -38 15 2 57
24 27 28 28 18 9 -10 -21 -9 -23 6 -17 10 3 25 1 33 -6 12 -10 14 -10 8 0 -5
8 -1 12 13 12 11 0 23 5 26 10 3 6 17 10 31 10 13 0 24 5 24 10 0 6 -14 10
-31 10 -27 0 -30 2 -19 15 7 8 19 15 26 15 8 0 14 4 14 10 0 5 -8 7 -17 4 -17
-5 -17 -5 0 6 9 6 26 8 38 5 21 -7 181 23 189 36 3 4 146 9 318 12 l313 4 31
54 c35 62 108 152 116 144 3 -3 15 4 26 14 26 25 108 81 119 81 4 0 7 -4 7 -8z
m2245 -65 c1 -50 5 -61 36 -91 19 -19 61 -46 94 -61 33 -15 62 -31 65 -35 3
-4 23 -28 44 -54 30 -35 47 -46 70 -47 24 -1 26 -3 9 -6 -39 -7 -25 -22 24
-25 28 -2 47 -8 49 -16 1 -7 0 -8 -3 -2 -2 5 -9 10 -14 10 -6 0 -7 -4 -4 -10
10 -16 -45 -11 -62 6 -9 8 -22 13 -29 10 -8 -3 -35 20 -66 55 -31 35 -74 71
-103 86 -92 47 -135 104 -135 178 0 30 -3 35 -23 35 -13 0 -32 -7 -43 -15 -21
-16 -34 -19 -34 -7 0 4 18 19 41 34 61 39 82 28 84 -45z m-5349 44 c-3 -5 -20
-8 -36 -7 -28 2 -31 -1 -36 -36 -4 -21 -11 -38 -16 -38 -5 0 -6 16 -2 36 l7
37 -37 -5 c-39 -4 -50 8 -13 15 43 8 138 7 133 -2z m8489 -11 c10 -11 16 -20
13 -20 -3 0 -13 9 -23 20 -10 11 -16 20 -13 20 3 0 13 -9 23 -20z m-4508 4
c-3 -3 -12 -4 -19 -1 -8 3 -5 6 6 6 11 1 17 -2 13 -5z m-6453 -20 c3 -8 2 -12
-4 -9 -6 3 -10 10 -10 16 0 14 7 11 14 -7z m1596 -39 c46 -42 61 -96 40 -151
l-11 -27 -24 36 c-14 20 -25 40 -25 45 0 4 -8 17 -18 28 -34 36 -41 56 -29 83
15 35 30 44 38 23 4 -9 17 -26 29 -37z m5070 49 c0 -3 -6 -12 -14 -19 -12 -12
-15 -12 -19 -1 -3 8 -3 17 0 20 8 8 33 8 33 0z m120 -10 c0 -2 -7 -4 -15 -4
-8 0 -15 4 -15 10 0 5 7 7 15 4 8 -4 15 -8 15 -10z m-6844 -41 c-8 -8 -12 -3
-21 27 l-7 25 17 -23 c9 -13 14 -26 11 -29z m7142 40 c-10 -2 -26 -2 -35 0
-10 3 -2 5 17 5 19 0 27 -2 18 -5z m165 0 c-7 -2 -21 -2 -30 0 -10 3 -4 5 12
5 17 0 24 -2 18 -5z m104 1 c-3 -3 -12 -4 -19 -1 -8 3 -5 6 6 6 11 1 17 -2 13
-5z m121 -1 c-16 -2 -40 -2 -55 0 -16 2 -3 4 27 4 30 0 43 -2 28 -4z m2101
-17 l23 -13 -23 -6 c-34 -9 -79 -9 -79 1 0 13 23 32 40 32 8 -1 26 -7 39 -14z
m501 -12 c0 -11 -19 -14 -82 -14 -93 0 -95 10 -5 26 68 11 87 9 87 -12z m899
-31 c-5 -13 -9 -44 -9 -68 0 -24 -4 -46 -9 -50 -5 -3 -12 -19 -16 -35 -4 -17
-11 -30 -16 -30 -15 0 -10 39 12 91 17 38 20 61 16 101 -6 49 -6 50 13 33 15
-13 17 -22 9 -42z m-6892 15 c-3 -8 -6 -5 -6 6 -1 11 2 17 5 13 3 -3 4 -12 1
-19z m5728 14 c31 -5 15 -8 -75 -12 -114 -5 -115 -5 -116 -30 -1 -22 -8 -44
-28 -90 -3 -8 -4 -1 0 15 3 17 6 47 7 68 2 21 9 42 17 47 18 12 139 13 195 2z
m-392 -9 c-29 -2 -77 -2 -105 0 -29 2 -6 3 52 3 58 0 81 -1 53 -3z m-6979 -19
c3 -8 2 -12 -4 -9 -6 3 -10 10 -10 16 0 14 7 11 14 -7z m4365 -40 c2 -2 -21
-4 -53 -4 -31 0 -55 4 -52 9 5 8 95 3 105 -5z m419 -1 c-10 -2 -26 -2 -35 0
-10 3 -2 5 17 5 19 0 27 -2 18 -5z m-4299 -126 c0 -23 -4 -51 -8 -62 -7 -17
-9 -15 -16 15 l-9 35 -7 -30 c-5 -25 -7 -21 -8 22 -1 40 3 54 16 62 26 14 33
5 32 -42z m-5280 -21 c-2 -2 -13 8 -23 22 l-19 27 24 -22 c12 -12 21 -24 18
-27z m11058 7 c-3 -10 -5 -4 -5 12 0 17 2 24 5 18 2 -7 2 -21 0 -30z m-10376
20 c0 -5 2 -18 5 -31 2 -13 0 -21 -5 -18 -12 8 -20 56 -10 56 5 0 9 -3 10 -7z
m6944 -3 c-8 -13 -55 -13 -75 0 -11 7 -2 10 33 10 30 0 46 -4 42 -10z m1485 2
c85 -7 85 -7 50 -21 -19 -7 -56 -24 -82 -37 -44 -23 -53 -24 -152 -18 -88 6
-104 9 -95 20 8 10 41 15 108 16 l96 2 -82 3 c-46 2 -83 8 -83 13 0 29 66 35
240 22z m530 -32 c0 -11 -90 -11 -135 0 -22 5 -7 8 53 9 49 1 82 -3 82 -9z
m149 5 c-8 -7 -78 -9 -85 -2 -4 4 14 7 41 7 27 0 46 -2 44 -5z m111 -5 c11 -7
7 -10 -17 -10 -18 0 -33 5 -33 10 0 13 30 13 50 0z m155 0 c3 -5 1 -10 -4 -10
-6 0 -11 5 -11 10 0 6 2 10 4 10 3 0 8 -4 11 -10z m-5918 -22 c-3 -8 -6 -5 -6
6 -1 11 2 17 5 13 3 -3 4 -12 1 -19z m4627 -20 c-3 -4 -12 -4 -22 -1 -9 3 -14
3 -10 -1 10 -12 36 -14 176 -15 86 -1 131 -5 127 -11 -4 -7 3 -7 20 0 15 6 45
10 68 9 40 0 39 -1 -28 -20 -55 -15 -89 -18 -160 -14 -49 3 -126 6 -170 7 -75
1 -105 9 -105 29 0 4 15 10 33 12 30 4 29 4 -8 6 l-40 2 23 19 c21 17 24 18
61 2 22 -9 37 -20 35 -24z m-3687 0 c-3 -7 -5 -2 -5 12 0 14 2 19 5 13 2 -7 2
-19 0 -25z m4163 22 c21 -13 -33 -32 -84 -28 l-41 3 45 17 c54 20 61 20 80 8z
m440 -15 c7 -8 9 -15 4 -16 -76 -5 -146 2 -166 15 -21 15 -18 16 64 16 64 0
89 -4 98 -15z m309 -13 c16 -12 37 -22 46 -22 18 0 19 -5 4 -32 -21 -39 -92
-60 -234 -68 -143 -9 -252 -26 -273 -43 -9 -7 -11 -22 -7 -43 5 -31 4 -33 -30
-40 -19 -3 -38 -11 -41 -16 -7 -11 61 0 88 13 9 5 59 9 110 9 163 0 225 -21
101 -34 -38 -4 -126 -13 -198 -20 -96 -10 -143 -11 -181 -3 -63 13 -151 -7
-168 -38 -12 -20 -49 -55 -54 -50 -4 4 22 59 32 66 5 4 -10 10 -32 14 -23 3
-46 12 -52 20 -8 10 -2 14 32 19 136 20 143 22 123 28 -11 4 -65 10 -120 14
-104 8 -102 21 3 23 29 1 51 5 48 10 -3 4 13 7 36 6 36 -2 39 -1 24 10 -9 7
-26 11 -36 8 -11 -3 -20 0 -20 6 0 6 6 11 13 11 6 0 24 7 39 14 33 18 226 25
236 9 4 -5 17 -12 30 -16 18 -4 22 -2 18 9 -4 11 5 14 43 14 26 0 77 3 112 8
l64 7 -74 5 c-45 3 -76 10 -78 17 -3 9 20 13 84 16 l88 3 -92 2 c-80 2 -94 5
-103 21 -5 11 -10 21 -10 23 0 2 37 0 82 -3 79 -5 148 -23 148 -38 0 -25 171
-42 195 -20 15 15 -14 29 -46 22 -17 -3 -45 5 -85 25 -32 17 -71 34 -86 37
-52 13 -20 20 85 20 94 0 109 -3 136 -23z m-7202 -23 c64 -36 103 -79 103
-115 0 -86 39 -202 81 -241 38 -34 100 -65 149 -74 36 -6 31 -7 -25 -3 -38 3
-83 9 -100 14 -16 4 -47 11 -69 15 -53 9 -86 47 -86 98 0 113 -40 236 -94 286
-47 44 -24 56 41 20z m9940 -41 c-2 -13 -4 -3 -4 22 0 25 2 35 4 23 2 -13 2
-33 0 -45z m303 15 c11 -26 28 -55 36 -65 12 -13 15 -29 10 -65 -3 -26 -7 -59
-8 -73 -3 -20 -10 -26 -43 -31 -44 -7 -66 -2 -78 18 -4 7 -17 13 -27 13 -10 0
-22 5 -26 11 -5 8 9 10 49 6 53 -6 57 -5 76 21 10 15 21 36 23 47 3 18 -3 20
-47 21 -85 3 -95 4 -95 12 0 4 24 7 53 7 77 -2 88 2 81 34 -4 14 -13 36 -20
48 -14 22 -18 43 -9 43 2 0 13 -21 25 -47z m-13020 12 c0 -10 -5 -11 -25 -2
-32 15 -32 26 0 19 14 -2 25 -10 25 -17z m5067 -12 c-3 -10 -5 -4 -5 12 0 17
2 24 5 18 2 -7 2 -21 0 -30z m1649 10 c-3 -3 -12 0 -21 7 -11 9 -15 10 -15 0
0 -6 -6 -10 -12 -7 -7 2 -26 0 -42 -4 -18 -5 -26 -5 -20 1 5 5 21 10 36 12 15
2 30 7 34 11 4 3 15 2 26 -4 11 -6 17 -13 14 -16z m2624 12 c40 -20 38 -25 -9
-25 -38 0 -42 5 -32 38 2 5 13 1 41 -13z m-9323 -17 c-3 -8 -6 -5 -6 6 -1 11
2 17 5 13 3 -3 4 -12 1 -19z m4528 12 c-3 -5 -23 -9 -43 -9 l-37 2 40 7 c22 4
41 8 43 9 2 0 0 -3 -3 -9z m1884 3 c-7 -44 1 -53 49 -54 31 0 41 -3 28 -8 -34
-13 -77 0 -87 26 -12 31 -11 43 1 43 6 0 9 -3 9 -7z m64 1 c12 -13 -3 -21 -28
-17 -13 3 -22 9 -19 14 6 10 38 12 47 3z m1984 0 c-3 -3 -12 -4 -19 -1 -8 3
-5 6 6 6 11 1 17 -2 13 -5z m763 -14 c0 -6 -25 -9 -57 -9 -52 1 -54 2 -23 9
53 11 80 11 80 0z m-3860 -10 c0 -5 -4 -10 -10 -10 -5 0 -10 5 -10 10 0 6 5
10 10 10 6 0 10 -4 10 -10z m5254 -5 c6 -17 -9 -20 -20 -4 -4 8 -9 7 -15 -2
-4 -7 -11 -10 -14 -7 -11 11 5 28 25 28 10 0 20 -7 24 -15z m-5377 -1 c-3 -3
-12 -4 -19 -1 -8 3 -5 6 6 6 11 1 17 -2 13 -5z m1298 -14 c-3 -5 -12 -10 -18
-10 -7 0 -6 4 3 10 19 12 23 12 15 0z m2832 -6 c18 -3 35 -9 38 -13 2 -5 -99
-9 -225 -10 -143 -1 -230 2 -230 8 0 5 19 12 43 15 23 3 53 7 67 9 33 4 266
-3 307 -9z m-4111 -12 c-8 -13 -113 -15 -121 -2 -4 6 16 10 60 10 36 0 64 -4
61 -8z m4269 -2 c3 -5 -3 -10 -14 -10 -12 0 -21 5 -21 10 0 6 6 10 14 10 8 0
18 -4 21 -10z m1166 -5 c7 -5 -4 -13 -27 -21 -50 -17 -55 -17 -24 2 l25 15
-25 -7 c-14 -4 -35 -7 -47 -6 -12 1 -25 -3 -29 -10 -4 -7 -3 -8 4 -4 6 4 27 0
47 -8 29 -12 41 -13 62 -3 20 9 27 9 30 0 3 -7 19 -9 45 -5 32 4 39 2 33 -8
-4 -7 -2 -16 5 -20 9 -5 8 -9 -2 -13 -13 -4 -47 5 -102 28 -15 6 -17 5 -11 -5
6 -10 2 -11 -21 -5 -16 4 -33 8 -39 9 -38 8 -84 29 -80 37 4 5 -2 9 -13 9 -10
0 -19 6 -19 13 0 9 24 12 88 10 48 0 93 -4 100 -8z m-7667 -24 c-9 -42 13 -97
46 -121 50 -36 104 -21 138 38 22 37 31 28 11 -9 -20 -39 -43 -59 -67 -59 -14
0 -26 -8 -32 -22 l-9 -23 -6 22 c-8 25 -35 39 -35 18 0 -20 -11 -19 -39 3 -60
44 -71 60 -67 99 4 51 22 83 46 83 16 0 19 -5 14 -29z m2320 20 c3 -5 -12 -11
-34 -13 -45 -4 -55 8 -12 15 15 2 30 5 34 6 4 0 9 -3 12 -8z m2581 -12 c-41
-12 -125 -27 -125 -22 0 12 71 32 110 32 43 -1 43 -1 15 -10z m3655 -3 c-10
-9 -29 -11 -60 -7 l-45 5 50 7 c28 3 54 7 60 7 5 1 3 -4 -5 -12z m230 -3 c0
-10 -25 -13 -95 -13 -82 0 -94 2 -83 14 18 19 178 18 178 -1z m-3795 -9 c19
-16 19 -16 -5 -8 -14 4 -36 7 -50 6 -23 -1 -23 0 -5 8 29 12 37 11 60 -6z
m1180 5 c-4 -6 -62 -18 -115 -25 -8 -1 -32 -6 -53 -12 -20 -6 -63 -8 -95 -5
-82 7 -85 8 -70 33 12 20 20 21 175 19 89 -1 160 -6 158 -10z m3495 -1 c0 -7
-7 -21 -14 -31 -13 -17 -14 -16 -19 2 -5 19 9 41 25 41 4 0 8 -6 8 -12z m65 2
c3 -5 1 -10 -4 -10 -6 0 -11 5 -11 10 0 6 2 10 4 10 3 0 8 -4 11 -10z m-7242
-24 c4 -10 1 -13 -8 -9 -8 3 -12 9 -9 14 7 12 11 11 17 -5z m7647 4 c0 -5 -2
-10 -4 -10 -3 0 -8 5 -11 10 -3 6 -1 10 4 10 6 0 11 -4 11 -10z m-7730 -4 c0
-2 -7 -7 -16 -10 -8 -3 -12 -2 -9 4 6 10 25 14 25 6z m6380 -32 l0 -24 -145 0
c-80 0 -145 4 -145 9 0 5 13 17 29 28 25 15 46 18 145 15 115 -3 116 -3 116
-28z m-3994 11 c-9 -7 -16 -16 -16 -21 0 -5 -11 -11 -25 -12 -33 -2 -32 9 3
29 33 19 63 22 38 4z m3424 -8 c0 -20 -4 -23 -30 -19 -38 5 -39 29 -2 35 15 2
28 5 30 6 1 0 2 -9 2 -22z m277 3 c-14 -11 -30 -20 -36 -20 -6 0 -11 -4 -11
-10 0 -5 -5 -10 -11 -10 -6 0 -8 7 -5 16 4 10 -4 19 -27 29 -31 14 -30 14 42
15 l74 0 -26 -20z m-5213 -9 c9 -8 16 -19 16 -25 0 -6 -5 -4 -10 4 -5 8 -10
11 -10 6 0 -5 -7 -2 -17 5 -22 18 -56 18 -65 -1 -5 -11 -7 -9 -7 6 -1 19 4 22
38 20 22 -1 46 -8 55 -15z m6696 10 c0 -16 -22 -24 -30 -11 -5 8 -10 4 -15
-12 -7 -23 -8 -23 -12 -2 -3 16 -10 21 -26 18 -21 -4 -21 -4 -2 5 26 13 85 14
85 2z m-7553 -7 c-3 -3 -12 -4 -19 -1 -8 3 -5 6 6 6 11 1 17 -2 13 -5z m3440
-10 c-3 -3 -12 -4 -19 -1 -8 3 -5 6 6 6 11 1 17 -2 13 -5z m-4494 -14 c10 0
16 -4 13 -8 -12 -20 35 -52 74 -52 22 0 40 -4 40 -9 0 -5 10 -12 23 -16 19 -7
16 -9 -17 -12 -25 -3 -42 0 -47 9 -7 11 -11 10 -19 -2 -15 -22 -12 -28 13 -33
12 -2 3 -5 -20 -6 -23 0 -45 -5 -48 -11 -8 -13 60 -13 161 1 59 9 90 9 113 1
17 -6 33 -7 36 -2 3 5 -3 11 -12 13 -10 2 -3 2 15 0 17 -2 32 0 32 4 0 5 9 9
20 9 11 0 20 -3 20 -7 0 -11 102 -1 114 11 8 9 5 11 -14 5 -19 -5 -22 -4 -14
4 13 15 696 29 693 15 -1 -5 1 -17 5 -26 11 -26 -1 -55 -16 -40 -18 18 -28 14
-28 -10 0 -22 -49 -113 -50 -93 0 6 -67 9 -182 8 l-183 -1 80 19 c120 29 165
43 165 51 0 11 -43 5 -53 -7 -6 -6 -10 -6 -14 3 -2 6 -9 12 -14 12 -6 0 -7 -4
-4 -10 7 -11 1 -12 -150 -35 -108 -16 -277 -30 -242 -19 24 8 21 34 -5 34 -12
0 -19 2 -16 5 3 3 81 8 174 11 92 2 170 7 173 9 4 5 -80 8 -212 8 -68 0 -83
18 -16 19 19 0 40 5 47 11 8 6 12 6 12 -3 0 -9 3 -10 14 -1 8 6 33 17 57 25
43 12 42 12 -51 12 -52 1 -97 -3 -101 -8 -5 -8 -103 -30 -131 -30 -10 1 -18
-6 -18 -13 0 -12 -35 -14 -217 -10 -120 2 -235 8 -255 13 -23 6 -40 6 -46 0
-15 -15 -82 0 -82 17 0 18 17 20 23 3 2 -7 4 0 4 15 0 23 -6 31 -29 39 -21 8
-26 13 -17 19 7 4 17 5 21 3 4 -3 8 2 8 10 0 10 -9 16 -25 16 -14 0 -25 4 -25
9 0 10 154 31 185 25 11 -2 28 -4 38 -4z m3121 -31 c-13 -15 -13 -17 1 -22 29
-12 15 -27 -27 -28 -67 -1 -135 -13 -121 -22 7 -4 42 -8 78 -8 36 -1 65 -2 65
-4 0 -1 -33 -13 -72 -25 -40 -12 -83 -26 -95 -31 -12 -4 -34 -6 -48 -3 -17 3
-24 1 -20 -6 3 -5 0 -7 -9 -4 -8 3 -28 -2 -45 -10 -54 -29 -46 -17 15 20 89
54 122 81 146 123 19 33 28 39 72 47 59 10 83 -1 60 -27z m1419 34 c-7 -2 -19
-2 -25 0 -7 3 -2 5 12 5 14 0 19 -2 13 -5z m1772 -11 c-3 -3 -11 0 -18 7 -9
10 -8 11 6 5 10 -3 15 -9 12 -12z m-6210 -2 c-3 -5 -10 -10 -16 -10 -5 0 -9 5
-9 10 0 6 7 10 16 10 8 0 12 -4 9 -10z m643 -12 c-5 -16 -43 -22 -66 -12 -14
6 -11 9 13 14 46 12 57 11 53 -2z m1587 2 c13 -6 15 -9 5 -9 -8 0 -22 4 -30 9
-18 12 -2 12 25 0z m4622 4 c-3 -3 -12 -4 -19 -1 -8 3 -5 6 6 6 11 1 17 -2 13
-5z m66 -1 c-7 -2 -19 -2 -25 0 -7 3 -2 5 12 5 14 0 19 -2 13 -5z m-5049 -12
c4 -5 -3 -7 -14 -4 -23 6 -26 13 -6 13 8 0 17 -4 20 -9z m-1907 -7 c-3 -3 -12
-4 -19 -1 -8 3 -5 6 6 6 11 1 17 -2 13 -5z m86 -11 c-7 -2 -19 -2 -25 0 -7 3
-2 5 12 5 14 0 19 -2 13 -5z m3057 -13 c0 -5 -2 -10 -4 -10 -3 0 -8 5 -11 10
-3 6 -1 10 4 10 6 0 11 -4 11 -10z m4275 0 c4 -6 -7 -10 -25 -10 -18 0 -29 4
-25 10 3 6 15 10 25 10 10 0 22 -4 25 -10z m-7028 -46 c-3 -3 -12 -4 -19 -1
-8 3 -5 6 6 6 11 1 17 -2 13 -5z m4246 -96 c-2 -5 -12 -4 -21 0 -9 5 -64 7
-122 5 -100 -3 -105 -2 -127 21 -13 14 -23 26 -23 28 0 2 26 5 57 6 32 2 59 5
61 6 6 7 180 -59 175 -66z m-4173 42 c0 -5 -5 -10 -11 -10 -5 0 -7 5 -4 10 3
6 8 10 11 10 2 0 4 -4 4 -10z m1940 -39 c25 -5 86 -15 135 -22 l90 -13 -90
-14 c-49 -7 -119 -15 -155 -18 -60 -5 -63 -4 -45 10 18 14 18 15 2 16 -15 0
-16 3 -6 21 9 17 8 24 -2 31 -10 7 -9 8 6 4 11 -3 40 -9 65 -15z m-2100 -1 c0
-5 -5 -10 -12 -10 -28 0 7 -15 50 -21 31 -4 11 -6 -62 -5 -113 1 -143 13 -84
32 43 15 108 17 108 4z m33 -17 c-7 -2 -19 -2 -25 0 -7 3 -2 5 12 5 14 0 19
-2 13 -5z m2622 -11 c-3 -3 -11 0 -18 7 -9 10 -8 11 6 5 10 -3 15 -9 12 -12z
m-193 -10 c-7 -2 -9 -8 -6 -14 4 -6 12 -2 18 11 11 20 12 20 23 -9 10 -26 9
-30 -5 -30 -30 0 -152 -44 -141 -50 6 -4 -20 -10 -58 -13 -71 -7 -160 -21
-194 -32 -34 -11 -17 18 21 36 33 16 34 17 10 19 -48 4 29 17 110 20 86 2 145
18 71 19 -24 1 -42 3 -39 6 10 10 183 51 193 46 5 -2 4 -6 -3 -9z m-2639 1
c-13 -2 -33 -2 -45 0 -13 2 -3 4 22 4 25 0 35 -2 23 -4z m4605 -43 c3 -9 -3
-11 -24 -6 -45 11 -129 7 -149 -6 -6 -4 -41 -6 -78 -6 -59 0 -67 3 -67 19 0
11 7 19 18 20 14 0 14 2 -3 8 -12 5 18 7 70 6 50 -2 90 -4 90 -5 0 -1 12 -3
26 -4 18 -1 25 3 22 12 -4 9 8 7 43 -6 26 -11 50 -25 52 -32z m-371 14 c-3 -3
-12 -4 -19 -1 -8 3 -5 6 6 6 11 1 17 -2 13 -5z m-4527 -19 c16 -19 3 -40 -16
-24 -15 13 -19 39 -5 39 5 0 14 -7 21 -15z m58 8 c-10 -2 -26 -2 -35 0 -10 3
-2 5 17 5 19 0 27 -2 18 -5z m340 -8 c-7 -5 -112 -16 -107 -10 9 8 92 23 102
17 5 -2 7 -5 5 -7z m611 -1 c1 -1 0 -8 -4 -14 -5 -8 -11 -8 -21 1 -8 6 -14 7
-14 2 0 -5 -28 -7 -62 -6 -49 2 -66 -1 -75 -14 -7 -9 -25 -16 -42 -15 -21 0
-30 -5 -34 -19 -4 -16 -14 -19 -66 -19 -59 0 -61 1 -51 20 10 18 7 24 -12 21
-5 0 -8 6 -8 15 0 11 -5 14 -16 10 -9 -3 -21 -6 -27 -6 -7 0 -6 -4 3 -10 13
-8 12 -10 -2 -10 -10 0 -18 5 -18 10 0 6 -8 10 -17 11 -33 1 41 19 112 27 63
7 345 4 354 -4z m31 -3 c0 -6 -4 -13 -10 -16 -5 -3 -10 1 -10 9 0 9 5 16 10
16 6 0 10 -4 10 -9z m-4850 -27 c0 -8 -4 -12 -10 -9 -5 3 -10 10 -10 16 0 5 5
9 10 9 6 0 10 -7 10 -16z m5020 13 c0 -2 -10 -12 -22 -23 l-23 -19 19 23 c18
21 26 27 26 19z m386 -19 c4 -7 4 -10 -1 -6 -4 4 -16 3 -26 -3 -15 -7 -17 -6
-13 6 7 18 30 20 40 3z m1413 3 c-14 -5 -34 -13 -45 -18 -10 -6 -48 -13 -84
-16 -58 -6 -62 -5 -37 6 15 7 25 15 23 18 -3 3 10 3 28 1 19 -2 36 0 39 5 3 4
27 9 54 10 37 1 42 0 22 -6z m-2499 -11 c12 -8 10 -10 -10 -11 -23 0 -23 -1
-5 -9 22 -9 21 -10 -77 -16 -82 -5 -110 14 -54 36 29 12 128 12 146 0z m4524
-8 c4 -2 2 -8 -5 -13 -18 -11 -32 -11 -25 0 3 4 -17 7 -44 6 -47 -2 -66 7 -37
18 13 6 96 -2 111 -11z m-4411 -9 c-7 -2 -21 -2 -30 0 -10 3 -4 5 12 5 17 0
24 -2 18 -5z m4615 -19 c39 -4 72 -11 72 -17 0 -6 -20 -7 -52 -3 -103 13 -118
14 -118 4 0 -5 -6 -6 -12 -1 -7 4 -29 13 -48 19 -33 10 -31 10 25 8 33 -2 93
-6 133 -10z m-3943 -16 c5 -4 1 -7 -10 -6 -11 0 -29 -2 -40 -6 -15 -5 -14 -4
3 5 12 7 22 17 22 22 0 6 3 7 8 1 4 -5 11 -12 17 -16z m1243 10 c-5 -13 -63
-31 -81 -25 -7 3 5 8 26 12 20 4 37 11 37 16 0 5 5 9 11 9 6 0 9 -5 7 -12z
m2887 -18 c29 -7 28 -8 -10 -8 -22 0 -51 4 -65 8 -23 7 -22 8 10 8 19 0 49 -4
65 -8z m252 -16 c99 -5 188 -3 256 5 l104 13 139 -70 c235 -119 319 -175 129
-87 -258 120 -272 125 -322 119 -136 -16 -487 5 -511 31 -4 4 7 5 23 2 17 -4
98 -10 182 -13z m-7261 -31 c-8 -8 -36 10 -36 25 0 13 3 12 20 -3 11 -10 18
-20 16 -22z m4021 31 c-3 -3 -12 -4 -19 -1 -8 3 -5 6 6 6 11 1 17 -2 13 -5z
m-1350 -30 c-7 -8 -87 -7 -95 0 -3 3 19 6 48 6 29 0 51 -3 47 -6z m-2601 -24
c26 -11 45 -23 42 -25 -5 -6 -98 33 -98 40 0 8 6 6 56 -15z m366 -99 c95 -23
101 -27 177 -105 34 -36 67 -66 73 -66 5 0 6 -4 3 -10 -11 -18 -25 -11 -78 38
-58 53 -99 82 -120 82 -7 0 -28 8 -47 19 -19 10 -53 28 -75 40 -48 26 -30 27
67 2z m3167 -37 c14 -12 -19 -1 -35 12 -18 14 -18 14 6 3 14 -6 27 -13 29 -15z
m-2711 -173 c9 -5 31 -13 47 -18 17 -5 29 -15 27 -22 -2 -8 4 -10 16 -7 12 4
25 0 33 -10 13 -16 12 -16 -7 -6 -12 6 -25 8 -29 4 -3 -4 -12 0 -18 8 -7 8
-24 16 -39 16 -41 2 -92 25 -76 35 17 11 24 11 46 0z m451 -176 c0 -5 -6 1
-14 15 -8 14 -14 30 -14 35 0 6 6 -1 14 -15 8 -14 14 -29 14 -35z m-2971 -55
c16 -19 72 -133 72 -148 0 -17 -35 -2 -50 21 -39 64 -70 128 -70 147 0 20 2
21 18 9 9 -8 23 -21 30 -29z m3048 -67 c4 -19 4 -37 0 -40 -3 -4 -6 4 -6 16 0
12 -7 38 -15 59 -13 32 -13 35 0 18 8 -11 18 -35 21 -53z m3404 -241 c17 -19
30 -37 30 -42 0 -4 12 -11 26 -14 15 -4 24 -10 20 -13 -3 -3 -23 2 -44 11 -27
12 -44 30 -62 64 -13 26 -29 54 -34 62 -11 16 2 2 64 -68z m-3363 26 c-3 -8
-6 -5 -6 6 -1 11 2 17 5 13 3 -3 4 -12 1 -19z m-7 -39 c0 -6 -4 -7 -10 -4 -5
3 -10 11 -10 16 0 6 5 7 10 4 6 -3 10 -11 10 -16z m4554 -34 c-4 -8 -8 -15
-10 -15 -2 0 -27 -9 -55 -21 -41 -15 -49 -17 -40 -5 7 9 28 18 47 22 18 3 38
12 45 20 15 18 20 18 13 -1z m-1061 -32 c-7 -2 -19 -2 -25 0 -7 3 -2 5 12 5
14 0 19 -2 13 -5z m807 -33 c-20 -13 -63 -13 -55 0 3 6 21 10 38 10 24 0 28
-3 17 -10z m-3893 -166 c-3 -3 -12 -4 -19 -1 -8 3 -5 6 6 6 11 1 17 -2 13 -5z
m4034 -26 c15 -28 50 -161 44 -167 -3 -2 -7 4 -11 13 -3 9 -11 16 -16 16 -6 0
-8 -7 -4 -15 4 -12 2 -13 -13 -3 -29 18 -45 49 -31 58 7 4 10 12 7 17 -13 22
-17 76 -6 89 15 18 16 18 30 -8z m-1090 -65 c-6 -10 -22 -31 -37 -48 l-26 -30
17 28 c27 46 70 92 46 50z m-5207 -108 c-4 -8 -8 -15 -10 -15 -2 0 -4 7 -4 15
0 8 4 15 10 15 5 0 7 -7 4 -15z m10935 -61 c15 -33 15 -31 -19 -49 -36 -19
-40 -19 -40 1 0 8 -4 12 -10 9 -16 -10 -50 -15 -50 -7 1 21 78 82 95 76 7 -3
17 -16 24 -30z m-88 -97 c-10 -9 -11 -8 -5 6 3 10 9 15 12 12 3 -3 0 -11 -7
-18z m-290 -35 c-17 -32 -97 -112 -112 -112 -10 0 -11 2 -2 8 7 4 11 17 9 29
-4 16 7 30 47 57 57 40 72 45 58 18z m517 -17 c-3 -3 -9 2 -12 12 -6 14 -5 15
5 6 7 -7 10 -15 7 -18z m-698 -179 c0 -14 -58 -105 -79 -123 -51 -44 -62 -19
-17 38 12 15 29 41 38 58 11 19 25 31 38 31 11 0 20 -2 20 -4z m-11262 -41
c86 -20 193 -46 237 -59 135 -40 170 -46 296 -51 67 -3 125 -8 128 -11 3 -4
-4 -4 -17 -1 -12 3 -20 1 -16 -4 3 -5 21 -9 40 -9 26 0 33 3 28 13 -6 9 -5 9
8 0 8 -7 18 -10 21 -6 9 8 38 -17 31 -28 -3 -5 1 -11 8 -13 202 -62 302 -97
388 -134 128 -55 140 -65 64 -48 -32 7 -80 11 -107 10 -55 -2 -89 5 -81 17 7
12 -3 11 -28 -2 -15 -8 -23 -8 -32 1 -8 8 -7 10 5 5 10 -4 20 -2 23 3 3 5 -7
8 -22 6 -16 -2 -41 7 -63 22 -50 34 -470 145 -550 144 -32 0 -398 104 -457
130 -51 23 -91 50 -74 50 7 0 84 -16 170 -35z m1483 -126 c20 -16 43 -29 50
-29 8 0 23 -7 33 -15 11 -8 26 -15 33 -15 13 0 74 -42 225 -157 53 -40 100
-73 106 -73 5 0 12 -6 15 -14 5 -11 0 -13 -24 -6 -34 10 -36 5 -8 -24 11 -12
39 -45 61 -74 42 -55 98 -90 157 -98 18 -2 42 -9 53 -15 43 -23 24 2 -58 77
-48 43 -81 80 -74 82 7 3 15 1 19 -4 10 -15 71 -55 71 -48 0 4 -8 17 -17 28
-18 20 -17 20 2 6 11 -8 25 -21 31 -29 6 -8 16 -11 22 -7 18 11 14 29 -4 22
-8 -3 -13 -2 -10 3 3 4 -8 21 -25 37 -39 37 -78 90 -58 80 7 -4 4 1 -9 12 -13
12 -18 22 -11 24 7 2 -2 15 -20 28 -17 14 -48 41 -69 60 -21 19 -33 32 -28 28
16 -13 29 -9 23 6 -6 15 132 -57 162 -86 11 -10 24 -18 29 -18 4 0 25 -18 47
-40 21 -21 43 -36 48 -33 6 3 7 1 4 -4 -9 -14 19 -37 34 -27 7 4 10 3 7 -2 -3
-5 3 -17 14 -26 10 -10 18 -16 18 -14 0 6 76 -70 181 -180 41 -43 98 -97 125
-119 78 -63 366 -354 417 -422 26 -34 62 -90 80 -125 19 -35 44 -80 56 -101
43 -75 -3 -77 -85 -4 -80 72 -122 100 -135 91 -7 -4 -17 -1 -23 7 -14 17 -103
79 -115 79 -4 0 -35 25 -69 55 -33 31 -85 72 -114 92 -165 114 -493 327 -590
383 -62 36 -153 92 -203 125 -118 79 -202 129 -245 145 -59 23 -89 48 -83 70
4 15 14 20 42 21 55 2 61 0 124 -38 48 -29 107 -49 107 -37 0 2 -23 16 -52 30
-29 15 -64 39 -78 53 -14 15 -41 38 -60 51 -19 13 -54 40 -77 60 -23 20 -70
54 -105 75 -35 21 -94 59 -133 84 -65 43 -68 46 -42 49 16 2 34 -1 40 -6 7 -5
21 -12 32 -16 13 -4 8 4 -15 24 -35 31 -34 31 50 -11 47 -23 101 -54 121 -70z
m9269 88 c0 -7 -6 -19 -12 -26 -10 -11 -10 -13 0 -7 14 9 16 -12 2 -34 -8 -13
-10 -12 -10 3 0 9 -4 17 -8 17 -5 0 -17 -8 -28 -17 -99 -89 -106 -95 -117 -84
-8 8 -7 15 3 24 8 7 12 8 8 3 -5 -6 -8 -14 -8 -20 0 -5 6 -1 14 9 8 11 12 24
9 28 -7 12 35 55 86 88 50 32 61 35 61 16z m-9738 -492 c289 -42 384 -59 458
-81 30 -9 89 -20 130 -24 134 -13 194 -33 255 -84 l30 -25 -50 15 c-27 8 -58
13 -69 10 -10 -3 -41 4 -68 15 -41 16 -50 17 -54 5 -7 -17 -32 -14 -184 20
-58 13 -170 35 -250 48 -307 54 -463 86 -476 97 -22 18 -17 39 11 39 13 0 133
-16 267 -35z m-1032 -195 c-8 -5 -55 -9 -105 -9 -59 0 -83 3 -70 9 29 12 194
12 175 0z m7228 -33 c26 -20 61 -107 44 -107 -5 0 -15 14 -22 31 -8 17 -30 47
-49 66 -33 32 -34 35 -11 28 14 -4 31 -12 38 -18z m-6558 -32 c0 -13 -64 -34
-207 -69 -48 -12 -124 -8 -139 7 -5 5 122 37 226 56 51 10 120 13 120 6z
m9655 -154 c-16 -16 -32 -27 -35 -25 -3 1 -19 -4 -35 -11 -107 -49 -121 -53
-167 -48 -26 3 -45 9 -43 13 3 4 37 16 77 25 40 10 99 28 131 42 32 13 62 21
67 18 6 -4 10 -1 10 4 0 6 6 11 13 11 6 0 -1 -13 -18 -29z m-591 -263 c-16
-29 -87 -128 -91 -128 -5 0 2 12 49 83 21 31 41 57 44 57 3 0 2 -6 -2 -12z
m49 -96 c3 -24 1 -40 -4 -36 -5 3 -9 -3 -9 -12 0 -10 -2 -15 -5 -12 -4 3 -3
29 1 57 8 60 9 61 17 3z m-192 -128 c-16 -33 -30 -56 -31 -52 0 11 53 118 58
114 2 -2 -10 -30 -27 -62z m-5089 -726 c57 -10 113 -83 88 -113 -6 -7 -7 -14
-5 -17 3 -3 -11 -8 -32 -11 -30 -5 -42 -2 -60 15 -17 16 -30 19 -57 15 -21 -3
-38 -1 -42 5 -5 7 -1 9 9 5 10 -3 17 -4 17 -2 0 3 -25 16 -56 30 -47 21 -66
24 -113 19 -31 -4 -64 -11 -73 -16 -10 -5 -18 -7 -18 -4 0 2 -3 11 -6 20 -7
18 38 43 99 56 41 8 195 7 249 -2z m-566 -33 c80 -47 39 -77 -49 -35 -57 27
-80 46 -72 60 11 18 69 5 121 -25z m289 -216 c11 -16 1 -19 -13 -3 -7 8 -8 14
-3 14 5 0 13 -5 16 -11z m-335 -28 c48 -21 38 -37 -16 -26 -22 4 -32 10 -28
17 4 7 3 8 -4 4 -7 -4 -17 -4 -24 0 -8 5 -6 10 8 15 10 4 20 8 20 8 1 1 21 -7
44 -18z"/>
<path d="M12571 7694 c0 -11 3 -14 6 -6 3 7 2 16 -1 19 -3 4 -6 -2 -5 -13z"/>
<path d="M12070 7644 c0 -8 5 -12 10 -9 6 4 8 11 5 16 -9 14 -15 11 -15 -7z"/>
<path d="M12568 7653 c-2 -5 -1 -24 3 -43 l6 -35 2 43 c1 39 -3 52 -11 35z"/>
<path d="M12184 7098 c-58 -63 -71 -85 -66 -118 3 -18 13 -35 26 -42 11 -6 32
-20 45 -32 l23 -21 -7 24 c-6 19 -4 23 9 18 8 -3 18 -2 21 3 9 15 -13 93 -29
102 -23 13 -20 41 9 72 13 14 19 26 11 26 -6 0 -26 -15 -42 -32z"/>
<path d="M12241 7058 c9 -35 29 -61 29 -40 0 14 -28 72 -35 72 -2 0 1 -14 6
-32z"/>
<path d="M12080 6991 c0 -5 5 -13 10 -16 6 -3 10 -2 10 4 0 5 -4 13 -10 16 -5
3 -10 2 -10 -4z"/>
<path d="M12033 6963 c17 -20 17 -21 -5 -27 -18 -5 -20 -8 -9 -15 16 -10 61
14 61 32 0 6 -3 7 -7 4 -3 -4 -18 0 -32 10 -26 16 -26 16 -8 -4z"/>
<path d="M12120 6917 c0 -21 33 -77 46 -77 8 0 14 3 14 8 -1 10 -59 79 -60 69z"/>
<path d="M12010 6897 c0 -9 12 -14 33 -14 17 -1 25 2 17 4 -8 3 -23 10 -32 15
-13 6 -18 5 -18 -5z"/>
<path d="M13854 6895 c-3 -8 -3 -19 1 -25 8 -13 35 -13 35 1 0 5 4 8 8 5 4 -2
9 4 9 15 1 10 -3 19 -8 19 -6 0 -7 -6 -3 -12 6 -10 4 -10 -7 0 -17 16 -28 15
-35 -3z"/>
<path d="M12313 6865 c0 -8 4 -15 9 -15 4 0 8 4 8 9 0 6 -4 12 -8 15 -5 3 -9
-1 -9 -9z"/>
<path d="M14618 6863 c6 -2 18 -2 25 0 6 3 1 5 -13 5 -14 0 -19 -2 -12 -5z"/>
<path d="M13844 6838 c-4 -6 -2 -14 4 -16 6 -2 9 -9 6 -15 -2 -7 3 -21 11 -32
16 -20 16 -20 10 3 -4 13 -2 22 4 22 17 0 13 37 -5 44 -21 8 -22 8 -30 -6z"/>
<path d="M14697 6780 c-3 -13 0 -20 9 -20 15 0 19 26 5 34 -5 3 -11 -3 -14
-14z"/>
<path d="M14785 6769 c4 -5 -7 -24 -25 -40 -17 -17 -29 -34 -25 -37 4 -4 12 1
19 11 7 9 18 17 23 17 9 0 53 45 53 55 0 3 -12 5 -26 5 -15 0 -23 -4 -19 -11z"/>
<path d="M13836 6745 c4 -8 11 -15 16 -15 6 0 5 6 -2 15 -7 8 -14 15 -16 15
-2 0 -1 -7 2 -15z"/>
<path d="M13899 6740 c-19 -13 -8 -18 21 -10 19 4 21 7 9 12 -9 3 -22 2 -30
-2z"/>
<path d="M14730 6740 c0 -5 5 -10 11 -10 5 0 7 5 4 10 -3 6 -8 10 -11 10 -2 0
-4 -4 -4 -10z"/>
<path d="M14738 6656 c-10 -7 -18 -20 -18 -29 0 -10 -6 -14 -14 -11 -8 3 -17
1 -21 -5 -4 -7 1 -8 12 -4 16 6 17 5 3 -13 -11 -14 -6 -12 19 7 19 14 38 35
42 47 9 25 2 27 -23 8z"/>
<path d="M14071 6423 c-19 -42 -12 -159 12 -189 32 -41 53 -114 51 -173 l-3
-53 26 23 c67 63 233 273 233 295 0 24 -20 16 -32 -13 -16 -38 -16 -37 -32
-24 -11 10 -16 9 -23 -4 -11 -18 -69 -28 -93 -15 -10 5 -35 43 -55 85 -45 89
-66 107 -84 68z"/>
<path d="M14526 6418 c3 -4 0 -8 -7 -8 -7 0 -10 -3 -6 -6 3 -4 0 -13 -8 -21
-27 -26 -16 -34 12 -9 30 28 38 53 17 53 -7 0 -11 -4 -8 -9z"/>
<path d="M14443 6257 c-33 -11 -44 -26 -20 -28 6 0 3 -4 -8 -9 -29 -13 -35
-12 -35 5 0 24 -26 17 -46 -12 -10 -15 -28 -36 -39 -48 -38 -40 -52 -60 -36
-50 11 6 13 4 9 -7 -4 -8 -2 -21 4 -29 8 -11 9 -10 4 4 -3 9 0 17 5 17 7 0 9
-11 7 -24 -5 -24 -4 -24 21 -11 25 13 115 97 136 126 21 29 45 68 45 74 0 6
-6 5 -47 -8z"/>
<path d="M13810 6066 c0 -3 11 -24 25 -46 17 -27 20 -37 10 -34 -8 4 -15 11
-15 17 0 6 -3 7 -6 4 -4 -3 8 -23 27 -44 38 -44 69 -52 69 -17 0 21 -15 38
-33 39 -4 0 -23 20 -42 44 -19 24 -35 41 -35 37z"/>
<path d="M14245 6050 c-3 -6 1 -7 9 -4 18 7 21 14 7 14 -6 0 -13 -4 -16 -10z"/>
<path d="M13970 5873 c0 -5 13 -17 28 -27 l27 -19 -24 26 c-26 28 -31 32 -31
20z"/>
<path d="M12885 5000 c3 -5 18 -10 33 -9 24 0 25 1 7 9 -28 12 -47 12 -40 0z"/>
<path d="M13146 4964 c16 -7 54 -13 84 -15 44 -3 55 -1 55 11 0 12 -16 15 -84
15 -75 1 -82 0 -55 -11z"/>
<path d="M9243 7590 c0 -25 2 -35 4 -22 2 12 2 32 0 45 -2 12 -4 2 -4 -23z"/>
<path d="M9260 7358 c0 -19 2 -20 10 -8 13 19 13 30 0 30 -5 0 -10 -10 -10
-22z"/>
<path d="M9300 7364 c0 -8 5 -12 10 -9 6 4 8 11 5 16 -9 14 -15 11 -15 -7z"/>
<path d="M9410 7371 c0 -6 4 -13 10 -16 6 -3 7 1 4 9 -7 18 -14 21 -14 7z"/>
<path d="M9078 6916 c-10 -7 -18 -18 -18 -25 0 -19 15 -12 27 14 6 14 10 25
10 25 -1 0 -10 -7 -19 -14z"/>
<path d="M9330 6796 c0 -2 7 -6 15 -10 8 -3 15 -1 15 4 0 6 -7 10 -15 10 -8 0
-15 -2 -15 -4z"/>
<path d="M9334 6694 c9 -8 20 -12 26 -9 19 12 10 25 -16 25 -23 0 -24 -1 -10
-16z"/>
<path d="M9746 6524 c-11 -7 -17 -16 -15 -19 3 -3 14 2 25 9 10 8 17 17 14 19
-3 3 -14 -1 -24 -9z"/>
<path d="M7400 7570 c0 -6 4 -9 9 -5 6 3 15 -3 21 -12 10 -17 11 -16 8 2 -3
21 -38 35 -38 15z"/>
<path d="M11019 7289 l-22 -32 26 17 c26 18 43 46 27 46 -5 0 -19 -14 -31 -31z"/>
<path d="M10687 7278 c2 -5 15 -8 29 -8 21 0 24 -4 19 -20 -3 -11 -3 -20 2
-20 4 0 14 9 21 20 10 16 24 20 75 21 34 1 73 5 87 9 14 4 -31 7 -107 6 -72 0
-129 -4 -126 -8z"/>
<path d="M10147 7224 c5 -13 3 -16 -10 -11 -28 11 -19 -7 13 -25 16 -9 32 -13
35 -8 3 4 -2 10 -10 14 -8 3 -15 12 -15 20 0 8 -4 18 -10 21 -6 4 -7 -1 -3
-11z"/>
<path d="M11052 7158 c-1 -31 -5 -63 -8 -72 -3 -9 -2 -16 4 -16 14 0 18 28 11
90 l-6 55 -1 -57z"/>
<path d="M10981 6944 c0 -11 3 -14 6 -6 3 7 2 16 -1 19 -3 4 -6 -2 -5 -13z"/>
<path d="M12014 7338 c-10 -16 17 -27 37 -15 21 13 20 16 -9 22 -12 2 -25 -1
-28 -7z"/>
<path d="M9110 7301 c0 -16 19 -23 40 -16 30 10 24 25 -10 25 -16 0 -30 -4
-30 -9z"/>
<path d="M1900 6940 c0 -5 5 -10 11 -10 5 0 7 5 4 10 -3 6 -8 10 -11 10 -2 0
-4 -4 -4 -10z"/>
<path d="M6616 6831 c19 -38 13 -61 -14 -54 -11 2 -22 0 -26 -5 -5 -9 124 -25
133 -16 11 10 -24 65 -45 70 -13 3 -21 10 -18 15 3 5 1 9 -5 9 -5 0 -16 3 -25
6 -14 5 -14 3 0 -25z"/>
<path d="M4730 5430 c-12 -8 -10 -10 8 -10 13 0 20 4 17 10 -7 12 -6 12 -25 0z"/>
<path d="M4895 5420 c-19 -5 -6 -6 35 -3 36 3 67 7 69 9 8 7 -73 2 -104 -6z"/>
<path d="M4740 5401 c0 -4 24 -6 53 -4 77 7 81 11 10 12 -35 1 -63 -3 -63 -8z"/>
<path d="M5365 5390 c-3 -5 1 -10 9 -10 9 0 16 5 16 10 0 6 -4 10 -9 10 -6 0
-13 -4 -16 -10z"/>
<path d="M5213 5363 c9 -2 25 -2 35 0 9 3 1 5 -18 5 -19 0 -27 -2 -17 -5z"/>
<path d="M5350 5341 c-21 -6 -22 -8 -8 -13 20 -8 86 1 94 13 6 10 -50 10 -86
0z"/>
<path d="M4464 5278 c-9 -30 -22 -38 -61 -38 -40 0 -60 -29 -43 -61 12 -21 62
-47 114 -58 22 -5 32 -16 45 -49 9 -23 27 -52 39 -65 19 -19 24 -20 32 -7 8
13 11 13 19 1 5 -7 14 -10 20 -7 18 12 13 83 -9 122 -12 20 -18 39 -15 42 3 3
-4 15 -15 27 -11 12 -23 32 -25 45 -11 58 -86 94 -101 48z"/>
<path d="M4405 4943 c2 -10 4 -22 4 -27 1 -5 8 -2 17 5 14 12 20 9 41 -16 59
-70 93 -102 93 -86 0 17 -123 136 -128 123 -2 -6 -8 -12 -13 -12 -6 0 -8 4 -4
9 3 5 1 12 -4 15 -5 4 -8 -2 -6 -11z"/>
<path d="M4880 4166 c0 -2 7 -7 16 -10 8 -3 12 -2 9 4 -6 10 -25 14 -25 6z"/>
<path d="M4632 6810 c3 -8 1 -23 -4 -32 -5 -11 -5 -18 0 -18 15 0 23 43 10 55
-7 7 -9 5 -6 -5z"/>
<path d="M4527 6683 c-4 -3 -7 -10 -7 -14 0 -9 39 1 46 12 6 10 -29 12 -39 2z"/>
<path d="M12083 6035 c17 -35 51 -68 73 -71 12 -2 13 1 3 12 -6 7 -15 11 -20
8 -5 -3 -9 -1 -9 4 0 4 -14 24 -31 43 l-31 34 15 -30z"/>
<path d="M12156 5937 c3 -10 9 -15 12 -12 3 3 0 11 -7 18 -10 9 -11 8 -5 -6z"/>
<path d="M7009 6093 c-13 -16 -12 -17 4 -4 9 7 17 15 17 17 0 8 -8 3 -21 -13z"/>
<path d="M6899 6078 c-8 -16 -3 -45 7 -45 9 0 10 5 4 17 -5 10 -6 20 -3 24 3
3 3 6 0 6 -4 0 -8 -1 -8 -2z"/>
<path d="M8291 5434 c0 -11 3 -14 6 -6 3 7 2 16 -1 19 -3 4 -6 -2 -5 -13z"/>
<path d="M7925 5430 c-3 -6 1 -7 9 -4 18 7 21 14 7 14 -6 0 -13 -4 -16 -10z"/>
<path d="M9703 5563 c9 -2 23 -2 30 0 6 3 -1 5 -18 5 -16 0 -22 -2 -12 -5z"/>
<path d="M10510 5510 c-21 -7 -17 -8 20 -9 32 0 41 2 30 9 -17 11 -16 11 -50
0z"/>
<path d="M9995 5340 c28 -3 77 -3 110 0 50 6 42 7 -50 7 -82 0 -97 -1 -60 -7z"/>
<path d="M13646 5259 c3 -5 18 -9 35 -9 16 0 29 4 29 9 0 5 -16 9 -35 9 -19 0
-32 -4 -29 -9z"/>
<path d="M3675 5410 c-3 -5 -1 -10 4 -10 6 0 11 5 11 10 0 6 -2 10 -4 10 -3 0
-8 -4 -11 -10z"/>
<path d="M6165 5150 c-3 -5 -1 -10 4 -10 6 0 11 5 11 10 0 6 -2 10 -4 10 -3 0
-8 -4 -11 -10z"/>
<path d="M9591 5166 c-8 -10 -4 -13 19 -13 35 0 37 3 11 16 -14 8 -22 7 -30
-3z"/>
<path d="M5618 5013 c7 -3 16 -2 19 1 4 3 -2 6 -13 5 -11 0 -14 -3 -6 -6z"/>
<path d="M9262 3588 c5 -15 28 -23 28 -10 0 5 -7 13 -16 16 -10 4 -14 1 -12
-6z"/>
<path d="M6265 910 c3 -5 8 -10 11 -10 2 0 4 5 4 10 0 6 -5 10 -11 10 -5 0 -7
-4 -4 -10z"/>
</g>
</svg>
